solid OpenSCAD_Model
  facet normal 0 0 1
    outer loop
      vertex 42.25 37.2 7.6
      vertex 2.75 37.2 7.6
      vertex 42.25 37.1756 7.6
    endloop
  endfacet
  facet normal 0 0 1
    outer loop
      vertex 46.3153 34.56 7.6
      vertex 44.945 33.9499 7.6
      vertex 45 33.7805 7.6
    endloop
  endfacet
  facet normal 0 0 1
    outer loop
      vertex 45.8501 35.3656 7.6
      vertex 44.6366 34.484 7.6
      vertex 44.945 33.9499 7.6
    endloop
  endfacet
  facet normal 0 0 1
    outer loop
      vertex 44.2239 34.9423 7.6
      vertex 45.2276 36.057 7.6
      vertex 44.475 36.6038 7.6
    endloop
  endfacet
  facet normal 0 0 1
    outer loop
      vertex 45.2276 36.057 7.6
      vertex 44.2239 34.9423 7.6
      vertex 44.6366 34.484 7.6
    endloop
  endfacet
  facet normal 0 0 1
    outer loop
      vertex 44.475 36.6038 7.6
      vertex 43.725 35.3048 7.6
      vertex 44.2239 34.9423 7.6
    endloop
  endfacet
  facet normal 0 0 1
    outer loop
      vertex 43.2865 35.5 7.6
      vertex 44.475 36.6038 7.6
      vertex 43.6251 36.9822 7.6
    endloop
  endfacet
  facet normal 0 0 1
    outer loop
      vertex 44.475 36.6038 7.6
      vertex 43.2865 35.5 7.6
      vertex 43.725 35.3048 7.6
    endloop
  endfacet
  facet normal 0 0 1
    outer loop
      vertex 42.7151 37.1756 7.6
      vertex 43.2865 35.5 7.6
      vertex 43.6251 36.9822 7.6
    endloop
  endfacet
  facet normal -0 0 1
    outer loop
      vertex 42.25 37.1756 7.6
      vertex 43.2865 35.5 7.6
      vertex 42.7151 37.1756 7.6
    endloop
  endfacet
  facet normal 0 0 1
    outer loop
      vertex 2.75 37.2 7.6
      vertex 43.2865 35.5 7.6
      vertex 42.25 37.1756 7.6
    endloop
  endfacet
  facet normal 0 0 1
    outer loop
      vertex 1.71953 35.5 7.6
      vertex 2.75 37.2 7.6
      vertex 1.82479 37.1028 7.6
    endloop
  endfacet
  facet normal 0 0 1
    outer loop
      vertex 2.75 37.2 7.6
      vertex 1.71953 35.5 7.6
      vertex 43.2865 35.5 7.6
    endloop
  endfacet
  facet normal -0 0 1
    outer loop
      vertex 0.940022 36.8153 7.6
      vertex 1.71953 35.5 7.6
      vertex 1.82479 37.1028 7.6
    endloop
  endfacet
  facet normal 0 0 1
    outer loop
      vertex 1.71953 35.5 7.6
      vertex 0.940022 36.8153 7.6
      vertex 1.55013 35.445 7.6
    endloop
  endfacet
  facet normal 0 0 1
    outer loop
      vertex 1.55013 35.445 7.6
      vertex 0.940022 36.8153 7.6
      vertex 1.01603 35.1366 7.6
    endloop
  endfacet
  facet normal -0 0 1
    outer loop
      vertex 0.134356 36.3501 7.6
      vertex 1.01603 35.1366 7.6
      vertex 0.940022 36.8153 7.6
    endloop
  endfacet
  facet normal 0 0 1
    outer loop
      vertex 1.01603 35.1366 7.6
      vertex 0.134356 36.3501 7.6
      vertex 0.557723 34.7239 7.6
    endloop
  endfacet
  facet normal -0 0 1
    outer loop
      vertex -0.556994 35.7276 7.6
      vertex 0.557723 34.7239 7.6
      vertex 0.134356 36.3501 7.6
    endloop
  endfacet
  facet normal 0 0 1
    outer loop
      vertex 0.557723 34.7239 7.6
      vertex -0.556994 35.7276 7.6
      vertex 0.195226 34.225 7.6
    endloop
  endfacet
  facet normal -0 0 1
    outer loop
      vertex -1.10381 34.975 7.6
      vertex 0.195226 34.225 7.6
      vertex -0.556994 35.7276 7.6
    endloop
  endfacet
  facet normal 0 0 1
    outer loop
      vertex -0.183839 33.0584 7.6
      vertex -0.2 32.75 7.6
      vertex -0.183839 32.75 7.6
    endloop
  endfacet
  facet normal 0 0 1
    outer loop
      vertex -1.7 2.75 7.6
      vertex -0.2 2.75 7.6
      vertex -0.2 32.75 7.6
    endloop
  endfacet
  facet normal 0 0 1
    outer loop
      vertex 0.195226 34.225 7.6
      vertex -1.10381 34.975 7.6
      vertex -0.0556164 33.6616 7.6
    endloop
  endfacet
  facet normal -0 0 1
    outer loop
      vertex -1.4822 34.1251 7.6
      vertex -0.0556164 33.6616 7.6
      vertex -1.10381 34.975 7.6
    endloop
  endfacet
  facet normal 0 0 1
    outer loop
      vertex -0.0556164 33.6616 7.6
      vertex -1.4822 34.1251 7.6
      vertex -0.183839 33.0584 7.6
    endloop
  endfacet
  facet normal 0 0 1
    outer loop
      vertex -1.7 2.75 7.6
      vertex -0.2 32.75 7.6
      vertex -1.67562 32.75 7.6
    endloop
  endfacet
  facet normal -0 0 1
    outer loop
      vertex -1.67562 33.2151 7.6
      vertex -0.183839 33.0584 7.6
      vertex -1.4822 34.1251 7.6
    endloop
  endfacet
  facet normal 0 -0 1
    outer loop
      vertex -1.60276 1.82479 7.6
      vertex -0.2 2.75 7.6
      vertex -1.7 2.75 7.6
    endloop
  endfacet
  facet normal 0 0 1
    outer loop
      vertex -1.67562 32.75 7.6
      vertex -0.183839 33.0584 7.6
      vertex -1.67562 33.2151 7.6
    endloop
  endfacet
  facet normal 0 0 1
    outer loop
      vertex -0.2 2.75 7.6
      vertex -0.850125 0.134356 7.6
      vertex -0.227631 -0.556994 7.6
    endloop
  endfacet
  facet normal 0 0 1
    outer loop
      vertex -0.183839 33.0584 7.6
      vertex -1.67562 32.75 7.6
      vertex -0.2 32.75 7.6
    endloop
  endfacet
  facet normal 0 0 1
    outer loop
      vertex -0.2 2.75 7.6
      vertex -1.31528 0.940022 7.6
      vertex -0.850125 0.134356 7.6
    endloop
  endfacet
  facet normal 0 0 1
    outer loop
      vertex -0.2 2.75 7.6
      vertex -1.60276 1.82479 7.6
      vertex -1.31528 0.940022 7.6
    endloop
  endfacet
  facet normal -0 0 1
    outer loop
      vertex -1.7 32.75 7.6
      vertex -1.7 2.75 7.6
      vertex -1.67562 32.75 7.6
    endloop
  endfacet
  facet normal 0 0 1
    outer loop
      vertex 46.7 32.75 7.6
      vertex 46.6756 2.75 7.6
      vertex 46.7 2.75 7.6
    endloop
  endfacet
  facet normal 0 0 1
    outer loop
      vertex 45 33.7805 7.6
      vertex 46.7 32.75 7.6
      vertex 46.6028 33.6752 7.6
    endloop
  endfacet
  facet normal 0 0 1
    outer loop
      vertex 46.7 32.75 7.6
      vertex 45 33.7805 7.6
      vertex 46.6756 2.75 7.6
    endloop
  endfacet
  facet normal 0 0 1
    outer loop
      vertex 45 1.71348 7.6
      vertex 46.6756 2.75 7.6
      vertex 45 33.7805 7.6
    endloop
  endfacet
  facet normal -0 0 1
    outer loop
      vertex 45 33.7805 7.6
      vertex 46.6028 33.6752 7.6
      vertex 46.3153 34.56 7.6
    endloop
  endfacet
  facet normal 0 0 1
    outer loop
      vertex 46.6756 2.75 7.6
      vertex 45 1.71348 7.6
      vertex 46.6756 2.28485 7.6
    endloop
  endfacet
  facet normal 0 0 1
    outer loop
      vertex 44.945 33.9499 7.6
      vertex 46.3153 34.56 7.6
      vertex 45.8501 35.3656 7.6
    endloop
  endfacet
  facet normal 0 0 1
    outer loop
      vertex 46.6756 2.28485 7.6
      vertex 45 1.71348 7.6
      vertex 46.4822 1.37488 7.6
    endloop
  endfacet
  facet normal 0 0 1
    outer loop
      vertex 44.6366 34.484 7.6
      vertex 45.8501 35.3656 7.6
      vertex 45.2276 36.057 7.6
    endloop
  endfacet
  facet normal 0 0 1
    outer loop
      vertex 46.4822 1.37488 7.6
      vertex 45 1.71348 7.6
      vertex 46.1038 0.525001 7.6
    endloop
  endfacet
  facet normal -0 0 1
    outer loop
      vertex 44.8048 1.275 7.6
      vertex 46.1038 0.525001 7.6
      vertex 45 1.71348 7.6
    endloop
  endfacet
  facet normal 0 0 1
    outer loop
      vertex 46.1038 0.525001 7.6
      vertex 44.8048 1.275 7.6
      vertex 45.557 -0.227631 7.6
    endloop
  endfacet
  facet normal -0 0 1
    outer loop
      vertex 44.4423 0.776065 7.6
      vertex 45.557 -0.227631 7.6
      vertex 44.8048 1.275 7.6
    endloop
  endfacet
  facet normal 0 0 1
    outer loop
      vertex 45.557 -0.227631 7.6
      vertex 44.4423 0.776065 7.6
      vertex 44.8656 -0.850125 7.6
    endloop
  endfacet
  facet normal -0 0 1
    outer loop
      vertex 43.984 0.3634 7.6
      vertex 44.8656 -0.850125 7.6
      vertex 44.4423 0.776065 7.6
    endloop
  endfacet
  facet normal 0 0 1
    outer loop
      vertex 44.8656 -0.850125 7.6
      vertex 43.984 0.3634 7.6
      vertex 44.06 -1.31528 7.6
    endloop
  endfacet
  facet normal -0 0 1
    outer loop
      vertex 43.4499 0.0550413 7.6
      vertex 44.06 -1.31528 7.6
      vertex 43.984 0.3634 7.6
    endloop
  endfacet
  facet normal 0 0 1
    outer loop
      vertex 43.4499 0.0550413 7.6
      vertex 43.1752 -1.60276 7.6
      vertex 44.06 -1.31528 7.6
    endloop
  endfacet
  facet normal -0 0 1
    outer loop
      vertex 42.8633 -0.135535 7.6
      vertex 43.1752 -1.60276 7.6
      vertex 43.4499 0.0550413 7.6
    endloop
  endfacet
  facet normal 0 0 1
    outer loop
      vertex 42.8633 -0.135535 7.6
      vertex 42.25 -0.2 7.6
      vertex 43.1752 -1.60276 7.6
    endloop
  endfacet
  facet normal 0 0 1
    outer loop
      vertex 42.25 -0.2 7.6
      vertex 42.25 -1.7 7.6
      vertex 43.1752 -1.60276 7.6
    endloop
  endfacet
  facet normal -0 0 1
    outer loop
      vertex 2.75 -0.2 7.6
      vertex 42.25 -1.7 7.6
      vertex 42.25 -0.2 7.6
    endloop
  endfacet
  facet normal -0 0 1
    outer loop
      vertex 2.75 -1.67562 7.6
      vertex 42.25 -1.7 7.6
      vertex 2.75 -0.2 7.6
    endloop
  endfacet
  facet normal 0 0 1
    outer loop
      vertex 42.25 -1.7 7.6
      vertex 2.75 -1.67562 7.6
      vertex 2.75 -1.7 7.6
    endloop
  endfacet
  facet normal -0 0 1
    outer loop
      vertex 2.44164 -0.183839 7.6
      vertex 2.75 -0.2 7.6
      vertex 2.75 -0.183839 7.6
    endloop
  endfacet
  facet normal 0 0 1
    outer loop
      vertex 2.75 -0.2 7.6
      vertex 2.44164 -0.183839 7.6
      vertex 2.75 -1.67562 7.6
    endloop
  endfacet
  facet normal 0 0 1
    outer loop
      vertex 2.44164 -0.183839 7.6
      vertex 2.28485 -1.67562 7.6
      vertex 2.75 -1.67562 7.6
    endloop
  endfacet
  facet normal 0 0 1
    outer loop
      vertex 1.8384 -0.0556164 7.6
      vertex 2.28485 -1.67562 7.6
      vertex 2.44164 -0.183839 7.6
    endloop
  endfacet
  facet normal 0 0 1
    outer loop
      vertex 1.8384 -0.0556164 7.6
      vertex 1.37488 -1.4822 7.6
      vertex 2.28485 -1.67562 7.6
    endloop
  endfacet
  facet normal 0 0 1
    outer loop
      vertex 1.275 0.195226 7.6
      vertex 1.37488 -1.4822 7.6
      vertex 1.8384 -0.0556164 7.6
    endloop
  endfacet
  facet normal 0 0 1
    outer loop
      vertex 0.525001 -1.10381 7.6
      vertex 1.275 0.195226 7.6
      vertex 0.776065 0.557723 7.6
    endloop
  endfacet
  facet normal 0 0 1
    outer loop
      vertex 1.275 0.195226 7.6
      vertex 0.525001 -1.10381 7.6
      vertex 1.37488 -1.4822 7.6
    endloop
  endfacet
  facet normal 0 0 1
    outer loop
      vertex -0.227631 -0.556994 7.6
      vertex 0.776065 0.557723 7.6
      vertex 0.3634 1.01603 7.6
    endloop
  endfacet
  facet normal 0 0 1
    outer loop
      vertex -0.227631 -0.556994 7.6
      vertex 0.3634 1.01603 7.6
      vertex 0.0550413 1.55013 7.6
    endloop
  endfacet
  facet normal 0 0 1
    outer loop
      vertex -0.227631 -0.556994 7.6
      vertex 0.0550413 1.55013 7.6
      vertex -0.135535 2.13666 7.6
    endloop
  endfacet
  facet normal 0 0 1
    outer loop
      vertex 0.776065 0.557723 7.6
      vertex -0.227631 -0.556994 7.6
      vertex 0.525001 -1.10381 7.6
    endloop
  endfacet
  facet normal 0 0 1
    outer loop
      vertex -0.227631 -0.556994 7.6
      vertex -0.135535 2.13666 7.6
      vertex -0.2 2.75 7.6
    endloop
  endfacet
  facet normal 0 0 -1
    outer loop
      vertex 46.2 16.75 0
      vertex 46.7 32.75 0
      vertex 46.7 3.25 0
    endloop
  endfacet
  facet normal 0 0 -1
    outer loop
      vertex 46.2 18.75 0
      vertex 46.7 32.75 0
      vertex 46.2 16.75 0
    endloop
  endfacet
  facet normal 0 0 -1
    outer loop
      vertex 45 3.25 0
      vertex 46.2 16.75 0
      vertex 46.7 3.25 0
    endloop
  endfacet
  facet normal -0 0 -1
    outer loop
      vertex 46.2 16.75 0
      vertex 45 3.25 0
      vertex 45 16.75 0
    endloop
  endfacet
  facet normal 0 0 -1
    outer loop
      vertex 45 18.75 0
      vertex 46.7 32.75 0
      vertex 46.2 18.75 0
    endloop
  endfacet
  facet normal -0 0 -1
    outer loop
      vertex 46.7 32.75 0
      vertex 45 18.75 0
      vertex 45 33.5 0
    endloop
  endfacet
  facet normal 0 0 -1
    outer loop
      vertex 46.7 32.75 0
      vertex 45 33.5 0
      vertex 46.6212 33.5 0
    endloop
  endfacet
  facet normal 0 0 -1
    outer loop
      vertex -0.183839 32.75 0
      vertex -0.2 32.75 0
      vertex -0.183839 33.0584 0
    endloop
  endfacet
  facet normal 0 0 -1
    outer loop
      vertex -0.183839 33.0584 0
      vertex -0.5 33.5 0
      vertex -0.0899654 33.5 0
    endloop
  endfacet
  facet normal 0 0 -1
    outer loop
      vertex -0.5 33.5 0
      vertex -0.183839 33.0584 0
      vertex -0.2 32.75 0
    endloop
  endfacet
  facet normal 0 0 -1
    outer loop
      vertex -1.67562 32.75 0
      vertex -0.2 32.75 0
      vertex -0.2 29.85 0
    endloop
  endfacet
  facet normal 0 0 -1
    outer loop
      vertex -0.5 33.5 0
      vertex -0.556994 35.7276 0
      vertex -0.5 35.7789 0
    endloop
  endfacet
  facet normal 0 0 -1
    outer loop
      vertex -0.5 33.5 0
      vertex -1.10381 34.975 0
      vertex -0.556994 35.7276 0
    endloop
  endfacet
  facet normal 0 0 -1
    outer loop
      vertex -0.2 32.75 0
      vertex -1.67562 32.75 0
      vertex -0.5 33.5 0
    endloop
  endfacet
  facet normal 0 0 -1
    outer loop
      vertex -0.5 33.5 0
      vertex -1.4822 34.1251 0
      vertex -1.10381 34.975 0
    endloop
  endfacet
  facet normal 0 0 -1
    outer loop
      vertex -1.67562 33.2151 0
      vertex -0.5 33.5 0
      vertex -1.67562 32.75 0
    endloop
  endfacet
  facet normal 0 0 -1
    outer loop
      vertex -1.7 29.85 0
      vertex -1.67562 32.75 0
      vertex -0.2 29.85 0
    endloop
  endfacet
  facet normal -0 0 -1
    outer loop
      vertex -1.67562 32.75 0
      vertex -1.7 29.85 0
      vertex -1.7 32.75 0
    endloop
  endfacet
  facet normal -0 0 -1
    outer loop
      vertex -0.5 33.5 0
      vertex -1.67562 33.2151 0
      vertex -1.4822 34.1251 0
    endloop
  endfacet
  facet normal 0 0 -1
    outer loop
      vertex -0.2 3.25 0
      vertex -1.2 16.75 0
      vertex -0.2 16.75 0
    endloop
  endfacet
  facet normal 0 0 -1
    outer loop
      vertex -1.7 20.65 0
      vertex -1.2 16.75 0
      vertex -1.7 3.25 0
    endloop
  endfacet
  facet normal 0 0 -1
    outer loop
      vertex -1.7 3.25 0
      vertex -1.2 16.75 0
      vertex -0.2 3.25 0
    endloop
  endfacet
  facet normal 0 0 -1
    outer loop
      vertex -1.2 18.75 0
      vertex -0.2 20.65 0
      vertex -0.2 18.75 0
    endloop
  endfacet
  facet normal 0 0 -1
    outer loop
      vertex -1.2 18.75 0
      vertex -1.7 20.65 0
      vertex -0.2 20.65 0
    endloop
  endfacet
  facet normal 0 0 -1
    outer loop
      vertex -1.2 16.75 0
      vertex -1.7 20.65 0
      vertex -1.2 18.75 0
    endloop
  endfacet
  facet normal -1 0 0
    outer loop
      vertex 2.75 -1.7 1
      vertex 2.75 -1.67562 7.6
      vertex 2.75 -1.67562 1
    endloop
  endfacet
  facet normal -1 -0 0
    outer loop
      vertex 2.75 -1.67562 7.6
      vertex 2.75 -1.7 1
      vertex 2.75 -1.7 7.6
    endloop
  endfacet
  facet normal -0.951056 -0.309018 0
    outer loop
      vertex -1.31528 0.940022 1
      vertex -1.60276 1.82479 7.6
      vertex -1.60276 1.82479 1
    endloop
  endfacet
  facet normal -0.951056 -0.309018 0
    outer loop
      vertex -1.60276 1.82479 7.6
      vertex -1.31528 0.940022 1
      vertex -1.31528 0.940022 7.6
    endloop
  endfacet
  facet normal -0.406736 -0.913546 0
    outer loop
      vertex 0.525001 -1.10381 1
      vertex 1.37488 -1.4822 7.6
      vertex 0.525001 -1.10381 7.6
    endloop
  endfacet
  facet normal -0.406736 -0.913546 -0
    outer loop
      vertex 1.37488 -1.4822 7.6
      vertex 0.525001 -1.10381 1
      vertex 1.37488 -1.4822 1
    endloop
  endfacet
  facet normal -0.994522 -0.104525 0
    outer loop
      vertex -1.60276 1.82479 1
      vertex -1.7 2.75 7.6
      vertex -1.7 2.75 1
    endloop
  endfacet
  facet normal -0.994522 -0.104525 0
    outer loop
      vertex -1.7 2.75 7.6
      vertex -1.60276 1.82479 1
      vertex -1.60276 1.82479 7.6
    endloop
  endfacet
  facet normal -0.866024 -0.500003 0
    outer loop
      vertex -0.850125 0.134356 1
      vertex -1.31528 0.940022 7.6
      vertex -1.31528 0.940022 1
    endloop
  endfacet
  facet normal -0.866024 -0.500003 0
    outer loop
      vertex -1.31528 0.940022 7.6
      vertex -0.850125 0.134356 1
      vertex -0.850125 0.134356 7.6
    endloop
  endfacet
  facet normal 0 -1 0
    outer loop
      vertex 2.28485 -1.67562 1
      vertex 2.75 -1.67562 7.6
      vertex 2.28485 -1.67562 7.6
    endloop
  endfacet
  facet normal 0 -1 -0
    outer loop
      vertex 2.75 -1.67562 7.6
      vertex 2.28485 -1.67562 1
      vertex 2.75 -1.67562 1
    endloop
  endfacet
  facet normal -0.743145 -0.66913 0
    outer loop
      vertex -0.227631 -0.556994 1
      vertex -0.850125 0.134356 7.6
      vertex -0.850125 0.134356 1
    endloop
  endfacet
  facet normal -0.743145 -0.66913 0
    outer loop
      vertex -0.850125 0.134356 7.6
      vertex -0.227631 -0.556994 1
      vertex -0.227631 -0.556994 7.6
    endloop
  endfacet
  facet normal -0.207912 -0.978148 0
    outer loop
      vertex 1.37488 -1.4822 1
      vertex 2.28485 -1.67562 7.6
      vertex 1.37488 -1.4822 7.6
    endloop
  endfacet
  facet normal -0.207912 -0.978148 -0
    outer loop
      vertex 2.28485 -1.67562 7.6
      vertex 1.37488 -1.4822 1
      vertex 2.28485 -1.67562 1
    endloop
  endfacet
  facet normal -0.587783 -0.809019 0
    outer loop
      vertex -0.227631 -0.556994 1
      vertex 0.525001 -1.10381 7.6
      vertex -0.227631 -0.556994 7.6
    endloop
  endfacet
  facet normal -0.587783 -0.809019 -0
    outer loop
      vertex 0.525001 -1.10381 7.6
      vertex -0.227631 -0.556994 1
      vertex 0.525001 -1.10381 1
    endloop
  endfacet
  facet normal 1 -0 0
    outer loop
      vertex 42.25 37.1756 7.6
      vertex 42.25 37.2 1
      vertex 42.25 37.2 7.6
    endloop
  endfacet
  facet normal 1 0 0
    outer loop
      vertex 42.25 37.2 1
      vertex 42.25 37.1756 7.6
      vertex 42.25 37.1756 1
    endloop
  endfacet
  facet normal 0.951053 0.309028 0
    outer loop
      vertex 46.6028 33.6752 7.6
      vertex 46.3153 34.56 1
      vertex 46.3153 34.56 7.6
    endloop
  endfacet
  facet normal 0.951053 0.309028 0
    outer loop
      vertex 46.3153 34.56 1
      vertex 46.6028 33.6752 7.6
      vertex 46.6028 33.6752 1
    endloop
  endfacet
  facet normal 0.406737 0.913545 -0
    outer loop
      vertex 44.475 36.6038 1
      vertex 43.6251 36.9822 7.6
      vertex 44.475 36.6038 7.6
    endloop
  endfacet
  facet normal 0.406737 0.913545 0
    outer loop
      vertex 43.6251 36.9822 7.6
      vertex 44.475 36.6038 1
      vertex 43.6251 36.9822 1
    endloop
  endfacet
  facet normal 0.99453 0.104448 0
    outer loop
      vertex 46.6028 33.6752 7.6
      vertex 46.6212 33.5 1
      vertex 46.6028 33.6752 1
    endloop
  endfacet
  facet normal 0.994527 0.104483 -9.38122e-07
    outer loop
      vertex 46.7 32.75 7.6
      vertex 46.6212 33.5 1
      vertex 46.6028 33.6752 7.6
    endloop
  endfacet
  facet normal 0.994526 0.104492 -0
    outer loop
      vertex 46.7 32.75 0
      vertex 46.6212 33.5 1
      vertex 46.7 32.75 7.6
    endloop
  endfacet
  facet normal 0.994526 0.104492 0
    outer loop
      vertex 46.6212 33.5 1
      vertex 46.7 32.75 0
      vertex 46.6212 33.5 0
    endloop
  endfacet
  facet normal 0.865985 0.50007 0
    outer loop
      vertex 46.3153 34.56 7.6
      vertex 45.8501 35.3656 1
      vertex 45.8501 35.3656 7.6
    endloop
  endfacet
  facet normal 0.865985 0.50007 0
    outer loop
      vertex 45.8501 35.3656 1
      vertex 46.3153 34.56 7.6
      vertex 46.3153 34.56 1
    endloop
  endfacet
  facet normal 0 1 -0
    outer loop
      vertex 42.7151 37.1756 1
      vertex 42.25 37.1756 7.6
      vertex 42.7151 37.1756 7.6
    endloop
  endfacet
  facet normal 0 1 0
    outer loop
      vertex 42.25 37.1756 7.6
      vertex 42.7151 37.1756 1
      vertex 42.25 37.1756 1
    endloop
  endfacet
  facet normal 0.743166 0.669107 0
    outer loop
      vertex 45.8501 35.3656 7.6
      vertex 45.2276 36.057 1
      vertex 45.2276 36.057 7.6
    endloop
  endfacet
  facet normal 0.743166 0.669107 0
    outer loop
      vertex 45.2276 36.057 1
      vertex 45.8501 35.3656 7.6
      vertex 45.8501 35.3656 1
    endloop
  endfacet
  facet normal 0.207884 0.978153 -0
    outer loop
      vertex 43.6251 36.9822 1
      vertex 42.7151 37.1756 7.6
      vertex 43.6251 36.9822 7.6
    endloop
  endfacet
  facet normal 0.207884 0.978153 0
    outer loop
      vertex 42.7151 37.1756 7.6
      vertex 43.6251 36.9822 1
      vertex 42.7151 37.1756 1
    endloop
  endfacet
  facet normal 0.587788 0.809015 -0
    outer loop
      vertex 45.2276 36.057 1
      vertex 44.475 36.6038 7.6
      vertex 45.2276 36.057 7.6
    endloop
  endfacet
  facet normal 0.587788 0.809015 0
    outer loop
      vertex 44.475 36.6038 7.6
      vertex 45.2276 36.057 1
      vertex 44.475 36.6038 1
    endloop
  endfacet
  facet normal 0 1 -0
    outer loop
      vertex -1.67562 32.75 0
      vertex -1.7 32.75 7.6
      vertex -1.67562 32.75 7.6
    endloop
  endfacet
  facet normal 0 1 0
    outer loop
      vertex -1.7 32.75 7.6
      vertex -1.67562 32.75 0
      vertex -1.7 32.75 0
    endloop
  endfacet
  facet normal -0.309038 0.95105 0
    outer loop
      vertex 1.82479 37.1028 1
      vertex 0.940022 36.8153 7.6
      vertex 1.82479 37.1028 7.6
    endloop
  endfacet
  facet normal -0.309038 0.95105 0
    outer loop
      vertex 0.940022 36.8153 7.6
      vertex 1.82479 37.1028 1
      vertex 0.940022 36.8153 1
    endloop
  endfacet
  facet normal -0.913549 0.406728 0
    outer loop
      vertex -1.4822 34.1251 0
      vertex -1.10381 34.975 7.6
      vertex -1.10381 34.975 0
    endloop
  endfacet
  facet normal -0.913549 0.406728 0
    outer loop
      vertex -1.10381 34.975 7.6
      vertex -1.4822 34.1251 0
      vertex -1.4822 34.1251 7.6
    endloop
  endfacet
  facet normal -0.104482 0.994527 0
    outer loop
      vertex 2.75 37.2 1
      vertex 1.82479 37.1028 7.6
      vertex 2.75 37.2 7.6
    endloop
  endfacet
  facet normal -0.104482 0.994527 0
    outer loop
      vertex 1.82479 37.1028 7.6
      vertex 2.75 37.2 1
      vertex 1.82479 37.1028 1
    endloop
  endfacet
  facet normal -0.500039 0.866003 0
    outer loop
      vertex 0.940022 36.8153 1
      vertex 0.134356 36.3501 7.6
      vertex 0.940022 36.8153 7.6
    endloop
  endfacet
  facet normal -0.500039 0.866003 0
    outer loop
      vertex 0.134356 36.3501 7.6
      vertex 0.940022 36.8153 1
      vertex 0.134356 36.3501 1
    endloop
  endfacet
  facet normal -1 0 0
    outer loop
      vertex -1.67562 32.75 0
      vertex -1.67562 33.2151 7.6
      vertex -1.67562 33.2151 0
    endloop
  endfacet
  facet normal -1 -0 0
    outer loop
      vertex -1.67562 33.2151 7.6
      vertex -1.67562 32.75 0
      vertex -1.67562 32.75 7.6
    endloop
  endfacet
  facet normal -0.669134 0.743142 0
    outer loop
      vertex 0.134356 36.3501 1
      vertex -0.556994 35.7276 7.6
      vertex 0.134356 36.3501 7.6
    endloop
  endfacet
  facet normal -0.669146 0.743131 -2.22047e-06
    outer loop
      vertex -0.5 35.7789 1
      vertex -0.556994 35.7276 7.6
      vertex 0.134356 36.3501 1
    endloop
  endfacet
  facet normal -0.669004 0.743259 0
    outer loop
      vertex -0.556994 35.7276 0
      vertex -0.5 35.7789 1
      vertex -0.5 35.7789 0
    endloop
  endfacet
  facet normal -0.669004 0.743259 0
    outer loop
      vertex -0.5 35.7789 1
      vertex -0.556994 35.7276 0
      vertex -0.556994 35.7276 7.6
    endloop
  endfacet
  facet normal -0.978149 0.207905 0
    outer loop
      vertex -1.67562 33.2151 0
      vertex -1.4822 34.1251 7.6
      vertex -1.4822 34.1251 0
    endloop
  endfacet
  facet normal -0.978149 0.207905 0
    outer loop
      vertex -1.4822 34.1251 7.6
      vertex -1.67562 33.2151 0
      vertex -1.67562 33.2151 7.6
    endloop
  endfacet
  facet normal -0.809007 0.587799 0
    outer loop
      vertex -1.10381 34.975 0
      vertex -0.556994 35.7276 7.6
      vertex -0.556994 35.7276 0
    endloop
  endfacet
  facet normal -0.809007 0.587799 0
    outer loop
      vertex -0.556994 35.7276 7.6
      vertex -1.10381 34.975 0
      vertex -1.10381 34.975 7.6
    endloop
  endfacet
  facet normal 0 -1 0
    outer loop
      vertex 46.6756 2.75 1
      vertex 46.7 2.75 7.6
      vertex 46.6756 2.75 7.6
    endloop
  endfacet
  facet normal 0 -1 -0
    outer loop
      vertex 46.7 2.75 7.6
      vertex 46.6756 2.75 1
      vertex 46.7 2.75 1
    endloop
  endfacet
  facet normal 0.309008 -0.951059 0
    outer loop
      vertex 43.1752 -1.60276 1
      vertex 44.06 -1.31528 7.6
      vertex 43.1752 -1.60276 7.6
    endloop
  endfacet
  facet normal 0.309008 -0.951059 0
    outer loop
      vertex 44.06 -1.31528 7.6
      vertex 43.1752 -1.60276 1
      vertex 44.06 -1.31528 1
    endloop
  endfacet
  facet normal 0.913542 -0.406745 0
    outer loop
      vertex 46.1038 0.525001 7.6
      vertex 46.4822 1.37488 1
      vertex 46.4822 1.37488 7.6
    endloop
  endfacet
  facet normal 0.913542 -0.406745 0
    outer loop
      vertex 46.4822 1.37488 1
      vertex 46.1038 0.525001 7.6
      vertex 46.1038 0.525001 1
    endloop
  endfacet
  facet normal 0.104526 -0.994522 0
    outer loop
      vertex 42.25 -1.7 1
      vertex 43.1752 -1.60276 7.6
      vertex 42.25 -1.7 7.6
    endloop
  endfacet
  facet normal 0.104526 -0.994522 0
    outer loop
      vertex 43.1752 -1.60276 7.6
      vertex 42.25 -1.7 1
      vertex 43.1752 -1.60276 1
    endloop
  endfacet
  facet normal 0.500034 -0.866006 0
    outer loop
      vertex 44.06 -1.31528 1
      vertex 44.8656 -0.850125 7.6
      vertex 44.06 -1.31528 7.6
    endloop
  endfacet
  facet normal 0.500034 -0.866006 0
    outer loop
      vertex 44.8656 -0.850125 7.6
      vertex 44.06 -1.31528 1
      vertex 44.8656 -0.850125 1
    endloop
  endfacet
  facet normal 1 -0 0
    outer loop
      vertex 46.6756 2.28485 7.6
      vertex 46.6756 2.75 1
      vertex 46.6756 2.75 7.6
    endloop
  endfacet
  facet normal 1 0 0
    outer loop
      vertex 46.6756 2.75 1
      vertex 46.6756 2.28485 7.6
      vertex 46.6756 2.28485 1
    endloop
  endfacet
  facet normal 0.669104 -0.743169 0
    outer loop
      vertex 44.8656 -0.850125 1
      vertex 45.557 -0.227631 7.6
      vertex 44.8656 -0.850125 7.6
    endloop
  endfacet
  facet normal 0.669104 -0.743169 0
    outer loop
      vertex 45.557 -0.227631 7.6
      vertex 44.8656 -0.850125 1
      vertex 45.557 -0.227631 1
    endloop
  endfacet
  facet normal 0.978152 -0.207891 0
    outer loop
      vertex 46.4822 1.37488 7.6
      vertex 46.6756 2.28485 1
      vertex 46.6756 2.28485 7.6
    endloop
  endfacet
  facet normal 0.978152 -0.207891 0
    outer loop
      vertex 46.6756 2.28485 1
      vertex 46.4822 1.37488 7.6
      vertex 46.4822 1.37488 1
    endloop
  endfacet
  facet normal 0.809027 -0.587772 0
    outer loop
      vertex 45.557 -0.227631 7.6
      vertex 46.1038 0.525001 1
      vertex 46.1038 0.525001 7.6
    endloop
  endfacet
  facet normal 0.809027 -0.587772 0
    outer loop
      vertex 46.1038 0.525001 1
      vertex 45.557 -0.227631 7.6
      vertex 45.557 -0.227631 1
    endloop
  endfacet
  facet normal 1 0 0
    outer loop
      vertex 46.7 32.75 7.6
      vertex 46.7 3.25 1
      vertex 46.7 32.75 0
    endloop
  endfacet
  facet normal 1 -0 0
    outer loop
      vertex 46.7 2.75 7.6
      vertex 46.7 3.25 1
      vertex 46.7 32.75 7.6
    endloop
  endfacet
  facet normal 1 0 0
    outer loop
      vertex 46.7 3.25 1
      vertex 46.7 2.75 7.6
      vertex 46.7 2.75 1
    endloop
  endfacet
  facet normal 1 0 0
    outer loop
      vertex 46.7 32.75 0
      vertex 46.7 3.25 1
      vertex 46.7 3.25 0
    endloop
  endfacet
  facet normal -1 0 0
    outer loop
      vertex -1.7 3.25 1
      vertex -1.7 20.65 0
      vertex -1.7 3.25 0
    endloop
  endfacet
  facet normal -1 0 0
    outer loop
      vertex -1.7 29.85 4.4
      vertex -1.7 32.75 0
      vertex -1.7 29.85 0
    endloop
  endfacet
  facet normal -1 0 0
    outer loop
      vertex -1.7 32.75 0
      vertex -1.7 29.85 4.4
      vertex -1.7 32.75 7.6
    endloop
  endfacet
  facet normal -1 0 0
    outer loop
      vertex -1.7 20.65 4.4
      vertex -1.7 32.75 7.6
      vertex -1.7 29.85 4.4
    endloop
  endfacet
  facet normal -1 0 0
    outer loop
      vertex -1.7 20.65 0
      vertex -1.7 3.25 1
      vertex -1.7 20.65 4.4
    endloop
  endfacet
  facet normal -1 0 0
    outer loop
      vertex -1.7 2.75 7.6
      vertex -1.7 20.65 4.4
      vertex -1.7 3.25 1
    endloop
  endfacet
  facet normal -1 0 0
    outer loop
      vertex -1.7 2.75 7.6
      vertex -1.7 3.25 1
      vertex -1.7 2.75 1
    endloop
  endfacet
  facet normal -1 0 0
    outer loop
      vertex -1.7 20.65 4.4
      vertex -1.7 2.75 7.6
      vertex -1.7 32.75 7.6
    endloop
  endfacet
  facet normal 0 1 0
    outer loop
      vertex 42.25 37.2 7.6
      vertex 39 37.2 2.5
      vertex 2.75 37.2 7.6
    endloop
  endfacet
  facet normal 0 1 -0
    outer loop
      vertex 42.25 37.2 1
      vertex 39 37.2 2.5
      vertex 42.25 37.2 7.6
    endloop
  endfacet
  facet normal 0 1 0
    outer loop
      vertex 39 37.2 2.5
      vertex 42.25 37.2 1
      vertex 39 37.2 1
    endloop
  endfacet
  facet normal 0 1 -0
    outer loop
      vertex 6 37.2 2.5
      vertex 2.75 37.2 7.6
      vertex 39 37.2 2.5
    endloop
  endfacet
  facet normal 0 1 0
    outer loop
      vertex 2.75 37.2 1
      vertex 6 37.2 2.5
      vertex 6 37.2 1
    endloop
  endfacet
  facet normal 0 1 0
    outer loop
      vertex 6 37.2 2.5
      vertex 2.75 37.2 1
      vertex 2.75 37.2 7.6
    endloop
  endfacet
  facet normal 0 -1 0
    outer loop
      vertex 2.75 -1.7 7.6
      vertex 6 -1.7 2.5
      vertex 42.25 -1.7 7.6
    endloop
  endfacet
  facet normal 0 -1 0
    outer loop
      vertex 2.75 -1.7 1
      vertex 6 -1.7 2.5
      vertex 2.75 -1.7 7.6
    endloop
  endfacet
  facet normal 0 -1 -0
    outer loop
      vertex 6 -1.7 2.5
      vertex 2.75 -1.7 1
      vertex 6 -1.7 1
    endloop
  endfacet
  facet normal 0 -1 0
    outer loop
      vertex 39 -1.7 2.5
      vertex 42.25 -1.7 7.6
      vertex 6 -1.7 2.5
    endloop
  endfacet
  facet normal 0 -1 0
    outer loop
      vertex 42.25 -1.7 1
      vertex 39 -1.7 2.5
      vertex 39 -1.7 1
    endloop
  endfacet
  facet normal 0 -1 0
    outer loop
      vertex 39 -1.7 2.5
      vertex 42.25 -1.7 1
      vertex 42.25 -1.7 7.6
    endloop
  endfacet
  facet normal 1 -0 0
    outer loop
      vertex 2.75 -0.2 7.6
      vertex 2.75 -0.183839 1
      vertex 2.75 -0.183839 7.6
    endloop
  endfacet
  facet normal 1 0 0
    outer loop
      vertex 2.75 -0.183839 1
      vertex 2.75 -0.2 7.6
      vertex 2.75 -0.2 1
    endloop
  endfacet
  facet normal 0.951056 0.309019 0
    outer loop
      vertex 0.0550413 1.55013 7.6
      vertex -0.135535 2.13666 1
      vertex -0.135535 2.13666 7.6
    endloop
  endfacet
  facet normal 0.951056 0.309019 0
    outer loop
      vertex -0.135535 2.13666 1
      vertex 0.0550413 1.55013 7.6
      vertex 0.0550413 1.55013 1
    endloop
  endfacet
  facet normal 0.406737 0.913545 -0
    outer loop
      vertex 1.8384 -0.0556164 1
      vertex 1.275 0.195226 7.6
      vertex 1.8384 -0.0556164 7.6
    endloop
  endfacet
  facet normal 0.406737 0.913545 0
    outer loop
      vertex 1.275 0.195226 7.6
      vertex 1.8384 -0.0556164 1
      vertex 1.275 0.195226 1
    endloop
  endfacet
  facet normal 0.994522 0.104529 0
    outer loop
      vertex -0.135535 2.13666 7.6
      vertex -0.2 2.75 1
      vertex -0.2 2.75 7.6
    endloop
  endfacet
  facet normal 0.994522 0.104529 0
    outer loop
      vertex -0.2 2.75 1
      vertex -0.135535 2.13666 7.6
      vertex -0.135535 2.13666 1
    endloop
  endfacet
  facet normal 0.207912 0.978148 -0
    outer loop
      vertex 2.44164 -0.183839 1
      vertex 1.8384 -0.0556164 7.6
      vertex 2.44164 -0.183839 7.6
    endloop
  endfacet
  facet normal 0.207912 0.978148 0
    outer loop
      vertex 1.8384 -0.0556164 7.6
      vertex 2.44164 -0.183839 1
      vertex 1.8384 -0.0556164 1
    endloop
  endfacet
  facet normal 0 1 -0
    outer loop
      vertex 2.75 -0.183839 1
      vertex 2.44164 -0.183839 7.6
      vertex 2.75 -0.183839 7.6
    endloop
  endfacet
  facet normal 0 1 0
    outer loop
      vertex 2.44164 -0.183839 7.6
      vertex 2.75 -0.183839 1
      vertex 2.44164 -0.183839 1
    endloop
  endfacet
  facet normal 0.743142 0.669134 0
    outer loop
      vertex 0.776065 0.557723 7.6
      vertex 0.3634 1.01603 1
      vertex 0.3634 1.01603 7.6
    endloop
  endfacet
  facet normal 0.743142 0.669134 0
    outer loop
      vertex 0.3634 1.01603 1
      vertex 0.776065 0.557723 7.6
      vertex 0.776065 0.557723 1
    endloop
  endfacet
  facet normal 0.587785 0.809017 -0
    outer loop
      vertex 1.275 0.195226 1
      vertex 0.776065 0.557723 7.6
      vertex 1.275 0.195226 7.6
    endloop
  endfacet
  facet normal 0.587785 0.809017 0
    outer loop
      vertex 0.776065 0.557723 7.6
      vertex 1.275 0.195226 1
      vertex 0.776065 0.557723 1
    endloop
  endfacet
  facet normal 0.866028 0.499995 0
    outer loop
      vertex 0.3634 1.01603 7.6
      vertex 0.0550413 1.55013 1
      vertex 0.0550413 1.55013 7.6
    endloop
  endfacet
  facet normal 0.866028 0.499995 0
    outer loop
      vertex 0.0550413 1.55013 1
      vertex 0.3634 1.01603 7.6
      vertex 0.3634 1.01603 1
    endloop
  endfacet
  facet normal -0.951125 -0.308807 0
    outer loop
      vertex 45 33.7805 1
      vertex 44.945 33.9499 7.6
      vertex 44.945 33.9499 1
    endloop
  endfacet
  facet normal -0.951125 -0.308807 0
    outer loop
      vertex 44.945 33.9499 7.6
      vertex 45 33.7805 1
      vertex 45 33.7805 7.6
    endloop
  endfacet
  facet normal -0.40668 -0.913571 0
    outer loop
      vertex 43.2865 35.5 1
      vertex 43.725 35.3048 7.6
      vertex 43.2865 35.5 7.6
    endloop
  endfacet
  facet normal -0.40668 -0.913571 -0
    outer loop
      vertex 43.725 35.3048 7.6
      vertex 43.2865 35.5 1
      vertex 43.725 35.3048 1
    endloop
  endfacet
  facet normal -0.743109 -0.669171 0
    outer loop
      vertex 44.6366 34.484 1
      vertex 44.2239 34.9423 7.6
      vertex 44.2239 34.9423 1
    endloop
  endfacet
  facet normal -0.743109 -0.669171 0
    outer loop
      vertex 44.2239 34.9423 7.6
      vertex 44.6366 34.484 1
      vertex 44.6366 34.484 7.6
    endloop
  endfacet
  facet normal -0.587815 -0.808995 0
    outer loop
      vertex 43.725 35.3048 1
      vertex 44.2239 34.9423 7.6
      vertex 43.725 35.3048 7.6
    endloop
  endfacet
  facet normal -0.587815 -0.808995 -0
    outer loop
      vertex 44.2239 34.9423 7.6
      vertex 43.725 35.3048 1
      vertex 44.2239 34.9423 1
    endloop
  endfacet
  facet normal -0.865999 -0.500045 0
    outer loop
      vertex 44.945 33.9499 1
      vertex 44.6366 34.484 7.6
      vertex 44.6366 34.484 1
    endloop
  endfacet
  facet normal -0.865999 -0.500045 0
    outer loop
      vertex 44.6366 34.484 7.6
      vertex 44.945 33.9499 1
      vertex 44.945 33.9499 7.6
    endloop
  endfacet
  facet normal 0 -1 0
    outer loop
      vertex -0.2 32.75 0
      vertex -0.183839 32.75 7.6
      vertex -0.2 32.75 7.6
    endloop
  endfacet
  facet normal 0 -1 -0
    outer loop
      vertex -0.183839 32.75 7.6
      vertex -0.2 32.75 0
      vertex -0.183839 32.75 0
    endloop
  endfacet
  facet normal 0.308807 -0.951125 0
    outer loop
      vertex 1.55013 35.445 1
      vertex 1.71953 35.5 7.6
      vertex 1.55013 35.445 7.6
    endloop
  endfacet
  facet normal 0.308807 -0.951125 0
    outer loop
      vertex 1.71953 35.5 7.6
      vertex 1.55013 35.445 1
      vertex 1.71953 35.5 1
    endloop
  endfacet
  facet normal 0.913545 -0.406737 0
    outer loop
      vertex -0.0556164 33.6616 7.6
      vertex 0.195226 34.225 1
      vertex 0.195226 34.225 7.6
    endloop
  endfacet
  facet normal 0.913545 -0.406737 0
    outer loop
      vertex 0.195226 34.225 1
      vertex -0.0556164 33.6616 7.6
      vertex -0.0556164 33.6616 1
    endloop
  endfacet
  facet normal 0.978148 -0.207911 0
    outer loop
      vertex -0.0556164 33.6616 7.6
      vertex -0.0899654 33.5 1
      vertex -0.0556164 33.6616 1
    endloop
  endfacet
  facet normal 0.978145 -0.207925 3.57576e-07
    outer loop
      vertex -0.183839 33.0584 7.6
      vertex -0.0899654 33.5 1
      vertex -0.0556164 33.6616 7.6
    endloop
  endfacet
  facet normal 0.978144 -0.20793 0
    outer loop
      vertex -0.183839 33.0584 0
      vertex -0.0899654 33.5 1
      vertex -0.183839 33.0584 7.6
    endloop
  endfacet
  facet normal 0.978144 -0.20793 0
    outer loop
      vertex -0.0899654 33.5 1
      vertex -0.183839 33.0584 0
      vertex -0.0899654 33.5 0
    endloop
  endfacet
  facet normal 1 -0 0
    outer loop
      vertex -0.183839 32.75 7.6
      vertex -0.183839 33.0584 0
      vertex -0.183839 33.0584 7.6
    endloop
  endfacet
  facet normal 1 0 0
    outer loop
      vertex -0.183839 33.0584 0
      vertex -0.183839 32.75 7.6
      vertex -0.183839 32.75 0
    endloop
  endfacet
  facet normal 0.669165 -0.743114 0
    outer loop
      vertex 0.557723 34.7239 1
      vertex 1.01603 35.1366 7.6
      vertex 0.557723 34.7239 7.6
    endloop
  endfacet
  facet normal 0.669165 -0.743114 0
    outer loop
      vertex 1.01603 35.1366 7.6
      vertex 0.557723 34.7239 1
      vertex 1.01603 35.1366 1
    endloop
  endfacet
  facet normal 0.808998 -0.587812 0
    outer loop
      vertex 0.195226 34.225 7.6
      vertex 0.557723 34.7239 1
      vertex 0.557723 34.7239 7.6
    endloop
  endfacet
  facet normal 0.808998 -0.587812 0
    outer loop
      vertex 0.557723 34.7239 1
      vertex 0.195226 34.225 7.6
      vertex 0.195226 34.225 1
    endloop
  endfacet
  facet normal 0.500045 -0.865999 0
    outer loop
      vertex 1.01603 35.1366 1
      vertex 1.55013 35.445 7.6
      vertex 1.01603 35.1366 7.6
    endloop
  endfacet
  facet normal 0.500045 -0.865999 0
    outer loop
      vertex 1.55013 35.445 7.6
      vertex 1.01603 35.1366 1
      vertex 1.55013 35.445 1
    endloop
  endfacet
  facet normal -0.308985 0.951067 0
    outer loop
      vertex 43.4499 0.0550413 1
      vertex 42.8633 -0.135535 7.6
      vertex 43.4499 0.0550413 7.6
    endloop
  endfacet
  facet normal -0.308985 0.951067 0
    outer loop
      vertex 42.8633 -0.135535 7.6
      vertex 43.4499 0.0550413 1
      vertex 42.8633 -0.135535 1
    endloop
  endfacet
  facet normal -0.913564 0.406695 0
    outer loop
      vertex 44.8048 1.275 1
      vertex 45 1.71348 7.6
      vertex 45 1.71348 1
    endloop
  endfacet
  facet normal -0.913564 0.406695 0
    outer loop
      vertex 45 1.71348 7.6
      vertex 44.8048 1.275 1
      vertex 44.8048 1.275 7.6
    endloop
  endfacet
  facet normal -0.104536 0.994521 0
    outer loop
      vertex 42.8633 -0.135535 1
      vertex 42.25 -0.2 7.6
      vertex 42.8633 -0.135535 7.6
    endloop
  endfacet
  facet normal -0.104536 0.994521 0
    outer loop
      vertex 42.25 -0.2 7.6
      vertex 42.8633 -0.135535 1
      vertex 42.25 -0.2 1
    endloop
  endfacet
  facet normal -0.669139 0.743137 0
    outer loop
      vertex 44.4423 0.776065 1
      vertex 43.984 0.3634 7.6
      vertex 44.4423 0.776065 7.6
    endloop
  endfacet
  facet normal -0.669139 0.743137 0
    outer loop
      vertex 43.984 0.3634 7.6
      vertex 44.4423 0.776065 1
      vertex 43.984 0.3634 1
    endloop
  endfacet
  facet normal -0.809015 0.587788 0
    outer loop
      vertex 44.4423 0.776065 1
      vertex 44.8048 1.275 7.6
      vertex 44.8048 1.275 1
    endloop
  endfacet
  facet normal -0.809015 0.587788 0
    outer loop
      vertex 44.8048 1.275 7.6
      vertex 44.4423 0.776065 1
      vertex 44.4423 0.776065 7.6
    endloop
  endfacet
  facet normal -0.499995 0.866028 0
    outer loop
      vertex 43.984 0.3634 1
      vertex 43.4499 0.0550413 7.6
      vertex 43.984 0.3634 7.6
    endloop
  endfacet
  facet normal -0.499995 0.866028 0
    outer loop
      vertex 43.4499 0.0550413 7.6
      vertex 43.984 0.3634 1
      vertex 43.4499 0.0550413 1
    endloop
  endfacet
  facet normal -1 0 0
    outer loop
      vertex 45 16.75 0
      vertex 45 3.25 0
      vertex 45 16.75 1
    endloop
  endfacet
  facet normal -1 0 0
    outer loop
      vertex 45 33.5 0
      vertex 45 18.75 0
      vertex 45 33.5 1
    endloop
  endfacet
  facet normal -1 0 0
    outer loop
      vertex 45 33.5 1
      vertex 45 33.7805 7.6
      vertex 45 33.7805 1
    endloop
  endfacet
  facet normal -1 0 0
    outer loop
      vertex 45 18.75 1
      vertex 45 33.5 1
      vertex 45 18.75 0
    endloop
  endfacet
  facet normal -1 0 0
    outer loop
      vertex 45 33.5 1
      vertex 45 18.75 1
      vertex 45 33.7805 7.6
    endloop
  endfacet
  facet normal -1 0 0
    outer loop
      vertex 45 16.75 1
      vertex 45 33.7805 7.6
      vertex 45 18.75 1
    endloop
  endfacet
  facet normal -1 0 0
    outer loop
      vertex 45 3.25 1
      vertex 45 16.75 1
      vertex 45 3.25 0
    endloop
  endfacet
  facet normal -1 0 0
    outer loop
      vertex 45 1.71348 7.6
      vertex 45 16.75 1
      vertex 45 3.25 1
    endloop
  endfacet
  facet normal -1 0 0
    outer loop
      vertex 45 1.71348 7.6
      vertex 45 3.25 1
      vertex 45 1.71348 1
    endloop
  endfacet
  facet normal -1 0 0
    outer loop
      vertex 45 16.75 1
      vertex 45 1.71348 7.6
      vertex 45 33.7805 7.6
    endloop
  endfacet
  facet normal 1 0 0
    outer loop
      vertex -0.2 32.75 7.6
      vertex -0.2 29.85 4.4
      vertex -0.2 32.75 0
    endloop
  endfacet
  facet normal 1 0 0
    outer loop
      vertex -0.2 32.75 7.6
      vertex -0.2 20.65 4.4
      vertex -0.2 29.85 4.4
    endloop
  endfacet
  facet normal 1 0 0
    outer loop
      vertex -0.2 20.65 4.4
      vertex -0.2 18.75 1
      vertex -0.2 20.65 0
    endloop
  endfacet
  facet normal 1 0 0
    outer loop
      vertex -0.2 20.65 4.4
      vertex -0.2 16.75 1
      vertex -0.2 18.75 1
    endloop
  endfacet
  facet normal 1 0 0
    outer loop
      vertex -0.2 16.75 1
      vertex -0.2 3.25 1
      vertex -0.2 16.75 0
    endloop
  endfacet
  facet normal 1 0 0
    outer loop
      vertex -0.2 2.75 7.6
      vertex -0.2 16.75 1
      vertex -0.2 20.65 4.4
    endloop
  endfacet
  facet normal 1 -0 0
    outer loop
      vertex -0.2 2.75 7.6
      vertex -0.2 20.65 4.4
      vertex -0.2 32.75 7.6
    endloop
  endfacet
  facet normal 1 0 0
    outer loop
      vertex -0.2 16.75 1
      vertex -0.2 2.75 7.6
      vertex -0.2 3.25 1
    endloop
  endfacet
  facet normal 1 0 0
    outer loop
      vertex -0.2 3.25 1
      vertex -0.2 2.75 7.6
      vertex -0.2 2.75 1
    endloop
  endfacet
  facet normal 1 0 0
    outer loop
      vertex -0.2 32.75 0
      vertex -0.2 29.85 4.4
      vertex -0.2 29.85 0
    endloop
  endfacet
  facet normal 1 0 0
    outer loop
      vertex -0.2 20.65 0
      vertex -0.2 18.75 1
      vertex -0.2 18.75 0
    endloop
  endfacet
  facet normal 1 0 0
    outer loop
      vertex -0.2 16.75 0
      vertex -0.2 3.25 1
      vertex -0.2 3.25 0
    endloop
  endfacet
  facet normal 0 -1 0
    outer loop
      vertex 1.71953 35.5 7.6
      vertex 6 35.5 2.5
      vertex 43.2865 35.5 7.6
    endloop
  endfacet
  facet normal 0 -1 0
    outer loop
      vertex 1.71953 35.5 1
      vertex 6 35.5 2.5
      vertex 1.71953 35.5 7.6
    endloop
  endfacet
  facet normal 0 -1 -0
    outer loop
      vertex 6 35.5 2.5
      vertex 1.71953 35.5 1
      vertex 6 35.5 1
    endloop
  endfacet
  facet normal 0 -1 0
    outer loop
      vertex 39 35.5 2.5
      vertex 43.2865 35.5 7.6
      vertex 6 35.5 2.5
    endloop
  endfacet
  facet normal 0 -1 0
    outer loop
      vertex 43.2865 35.5 1
      vertex 39 35.5 2.5
      vertex 39 35.5 1
    endloop
  endfacet
  facet normal 0 -1 0
    outer loop
      vertex 39 35.5 2.5
      vertex 43.2865 35.5 1
      vertex 43.2865 35.5 7.6
    endloop
  endfacet
  facet normal 0 1 0
    outer loop
      vertex 42.25 -0.2 7.6
      vertex 39 -0.2 2.5
      vertex 2.75 -0.2 7.6
    endloop
  endfacet
  facet normal 0 1 -0
    outer loop
      vertex 42.25 -0.2 1
      vertex 39 -0.2 2.5
      vertex 42.25 -0.2 7.6
    endloop
  endfacet
  facet normal 0 1 0
    outer loop
      vertex 39 -0.2 2.5
      vertex 42.25 -0.2 1
      vertex 39 -0.2 1
    endloop
  endfacet
  facet normal 0 1 -0
    outer loop
      vertex 6 -0.2 2.5
      vertex 2.75 -0.2 7.6
      vertex 39 -0.2 2.5
    endloop
  endfacet
  facet normal 0 1 0
    outer loop
      vertex 2.75 -0.2 1
      vertex 6 -0.2 2.5
      vertex 6 -0.2 1
    endloop
  endfacet
  facet normal 0 1 0
    outer loop
      vertex 6 -0.2 2.5
      vertex 2.75 -0.2 1
      vertex 2.75 -0.2 7.6
    endloop
  endfacet
  facet normal 0 0 -1
    outer loop
      vertex -1.7 20.65 4.4
      vertex -0.2 29.85 4.4
      vertex -0.2 20.65 4.4
    endloop
  endfacet
  facet normal -0 0 -1
    outer loop
      vertex -0.2 29.85 4.4
      vertex -1.7 20.65 4.4
      vertex -1.7 29.85 4.4
    endloop
  endfacet
  facet normal 0 -1 0
    outer loop
      vertex -1.7 29.85 0
      vertex -0.2 29.85 4.4
      vertex -1.7 29.85 4.4
    endloop
  endfacet
  facet normal 0 -1 -0
    outer loop
      vertex -0.2 29.85 4.4
      vertex -1.7 29.85 0
      vertex -0.2 29.85 0
    endloop
  endfacet
  facet normal 0 1 -0
    outer loop
      vertex -0.2 20.65 0
      vertex -1.7 20.65 4.4
      vertex -0.2 20.65 4.4
    endloop
  endfacet
  facet normal 0 1 0
    outer loop
      vertex -1.7 20.65 4.4
      vertex -0.2 20.65 0
      vertex -1.7 20.65 0
    endloop
  endfacet
  facet normal 0 0 -1
    outer loop
      vertex 2.75 -1.67562 1
      vertex 6 -1.7 1
      vertex 2.75 -1.7 1
    endloop
  endfacet
  facet normal 0 0 -1
    outer loop
      vertex 6 -1.7 1
      vertex 2.75 -1.67562 1
      vertex 6 -0.2 1
    endloop
  endfacet
  facet normal 0 0 -1
    outer loop
      vertex 2.75 -1.67562 1
      vertex 2.75 -0.2 1
      vertex 6 -0.2 1
    endloop
  endfacet
  facet normal 0 0 -1
    outer loop
      vertex 2.44164 -0.183839 1
      vertex 2.75 -0.2 1
      vertex 2.75 -1.67562 1
    endloop
  endfacet
  facet normal 0 0 -1
    outer loop
      vertex 2.75 -0.2 1
      vertex 2.44164 -0.183839 1
      vertex 2.75 -0.183839 1
    endloop
  endfacet
  facet normal 0 0 -1
    outer loop
      vertex 2.28485 -1.67562 1
      vertex 2.44164 -0.183839 1
      vertex 2.75 -1.67562 1
    endloop
  endfacet
  facet normal 0 0 -1
    outer loop
      vertex 2.28485 -1.67562 1
      vertex 1.8384 -0.0556164 1
      vertex 2.44164 -0.183839 1
    endloop
  endfacet
  facet normal 0 0 -1
    outer loop
      vertex 1.37488 -1.4822 1
      vertex 1.8384 -0.0556164 1
      vertex 2.28485 -1.67562 1
    endloop
  endfacet
  facet normal 0 0 -1
    outer loop
      vertex 1.37488 -1.4822 1
      vertex 1.275 0.195226 1
      vertex 1.8384 -0.0556164 1
    endloop
  endfacet
  facet normal 0 0 -1
    outer loop
      vertex 0.525001 -1.10381 1
      vertex 1.275 0.195226 1
      vertex 1.37488 -1.4822 1
    endloop
  endfacet
  facet normal -0 0 -1
    outer loop
      vertex 1.275 0.195226 1
      vertex 0.525001 -1.10381 1
      vertex 0.776065 0.557723 1
    endloop
  endfacet
  facet normal 0 0 -1
    outer loop
      vertex -0.227631 -0.556994 1
      vertex 0.776065 0.557723 1
      vertex 0.525001 -1.10381 1
    endloop
  endfacet
  facet normal -0 0 -1
    outer loop
      vertex 0.776065 0.557723 1
      vertex -0.227631 -0.556994 1
      vertex 0.3634 1.01603 1
    endloop
  endfacet
  facet normal 0 0 -1
    outer loop
      vertex -0.850125 0.134356 1
      vertex 0.3634 1.01603 1
      vertex -0.227631 -0.556994 1
    endloop
  endfacet
  facet normal -0 0 -1
    outer loop
      vertex 0.3634 1.01603 1
      vertex -0.850125 0.134356 1
      vertex 0.0550413 1.55013 1
    endloop
  endfacet
  facet normal 0 0 -1
    outer loop
      vertex -1.31528 0.940022 1
      vertex 0.0550413 1.55013 1
      vertex -0.850125 0.134356 1
    endloop
  endfacet
  facet normal -0 0 -1
    outer loop
      vertex 0.0550413 1.55013 1
      vertex -1.31528 0.940022 1
      vertex -0.135535 2.13666 1
    endloop
  endfacet
  facet normal 0 0 -1
    outer loop
      vertex -1.60276 1.82479 1
      vertex -0.135535 2.13666 1
      vertex -1.31528 0.940022 1
    endloop
  endfacet
  facet normal -0 0 -1
    outer loop
      vertex -0.135535 2.13666 1
      vertex -1.60276 1.82479 1
      vertex -0.2 2.75 1
    endloop
  endfacet
  facet normal 0 0 -1
    outer loop
      vertex -1.7 2.75 1
      vertex -0.2 2.75 1
      vertex -1.60276 1.82479 1
    endloop
  endfacet
  facet normal 0 0 -1
    outer loop
      vertex -0.2 2.75 1
      vertex -1.7 2.75 1
      vertex -0.2 3.25 1
    endloop
  endfacet
  facet normal 0 0 -1
    outer loop
      vertex -1.7 2.75 1
      vertex -1.7 3.25 1
      vertex -0.2 3.25 1
    endloop
  endfacet
  facet normal 0 0 -1
    outer loop
      vertex 45 1.71348 1
      vertex 46.6756 2.28485 1
      vertex 46.4822 1.37488 1
    endloop
  endfacet
  facet normal 0 0 -1
    outer loop
      vertex 46.6756 2.75 1
      vertex 46.7 3.25 1
      vertex 46.7 2.75 1
    endloop
  endfacet
  facet normal 0 0 -1
    outer loop
      vertex 45 3.25 1
      vertex 46.6756 2.28485 1
      vertex 45 1.71348 1
    endloop
  endfacet
  facet normal 0 0 -1
    outer loop
      vertex 45 1.71348 1
      vertex 46.4822 1.37488 1
      vertex 46.1038 0.525001 1
    endloop
  endfacet
  facet normal 0 0 -1
    outer loop
      vertex 44.8048 1.275 1
      vertex 46.1038 0.525001 1
      vertex 45.557 -0.227631 1
    endloop
  endfacet
  facet normal 0 0 -1
    outer loop
      vertex 46.6756 2.28485 1
      vertex 45 3.25 1
      vertex 46.6756 2.75 1
    endloop
  endfacet
  facet normal 0 0 -1
    outer loop
      vertex 46.6756 2.75 1
      vertex 45 3.25 1
      vertex 46.7 3.25 1
    endloop
  endfacet
  facet normal 0 0 -1
    outer loop
      vertex 44.4423 0.776065 1
      vertex 45.557 -0.227631 1
      vertex 44.8656 -0.850125 1
    endloop
  endfacet
  facet normal 0 0 -1
    outer loop
      vertex 46.1038 0.525001 1
      vertex 44.8048 1.275 1
      vertex 45 1.71348 1
    endloop
  endfacet
  facet normal 0 0 -1
    outer loop
      vertex 45.557 -0.227631 1
      vertex 44.4423 0.776065 1
      vertex 44.8048 1.275 1
    endloop
  endfacet
  facet normal 0 0 -1
    outer loop
      vertex 43.984 0.3634 1
      vertex 44.8656 -0.850125 1
      vertex 44.06 -1.31528 1
    endloop
  endfacet
  facet normal 0 0 -1
    outer loop
      vertex 44.8656 -0.850125 1
      vertex 43.984 0.3634 1
      vertex 44.4423 0.776065 1
    endloop
  endfacet
  facet normal 0 0 -1
    outer loop
      vertex 44.06 -1.31528 1
      vertex 43.4499 0.0550413 1
      vertex 43.984 0.3634 1
    endloop
  endfacet
  facet normal 0 0 -1
    outer loop
      vertex 43.1752 -1.60276 1
      vertex 43.4499 0.0550413 1
      vertex 44.06 -1.31528 1
    endloop
  endfacet
  facet normal 0 0 -1
    outer loop
      vertex 43.1752 -1.60276 1
      vertex 42.8633 -0.135535 1
      vertex 43.4499 0.0550413 1
    endloop
  endfacet
  facet normal 0 0 -1
    outer loop
      vertex 42.25 -1.7 1
      vertex 42.8633 -0.135535 1
      vertex 43.1752 -1.60276 1
    endloop
  endfacet
  facet normal 0 0 -1
    outer loop
      vertex 42.25 -0.2 1
      vertex 42.8633 -0.135535 1
      vertex 42.25 -1.7 1
    endloop
  endfacet
  facet normal 0 0 -1
    outer loop
      vertex 42.25 -1.7 1
      vertex 39 -1.7 1
      vertex 42.25 -0.2 1
    endloop
  endfacet
  facet normal -0 0 -1
    outer loop
      vertex 42.25 -0.2 1
      vertex 39 -1.7 1
      vertex 39 -0.2 1
    endloop
  endfacet
  facet normal 0 -1 0
    outer loop
      vertex -1.7 3.25 0
      vertex -0.2 3.25 1
      vertex -1.7 3.25 1
    endloop
  endfacet
  facet normal 0 -1 -0
    outer loop
      vertex -0.2 3.25 1
      vertex -1.7 3.25 0
      vertex -0.2 3.25 0
    endloop
  endfacet
  facet normal 0 -1 0
    outer loop
      vertex 45 3.25 0
      vertex 46.7 3.25 1
      vertex 45 3.25 1
    endloop
  endfacet
  facet normal 0 -1 -0
    outer loop
      vertex 46.7 3.25 1
      vertex 45 3.25 0
      vertex 46.7 3.25 0
    endloop
  endfacet
  facet normal 0 0 -1
    outer loop
      vertex 6 35.5 1
      vertex 2.75 37.2 1
      vertex 6 37.2 1
    endloop
  endfacet
  facet normal 0 0 -1
    outer loop
      vertex 1.71953 35.5 1
      vertex 2.75 37.2 1
      vertex 6 35.5 1
    endloop
  endfacet
  facet normal 0 0 -1
    outer loop
      vertex 2.75 37.2 1
      vertex 1.71953 35.5 1
      vertex 1.82479 37.1028 1
    endloop
  endfacet
  facet normal 0 0 -1
    outer loop
      vertex 0.940022 36.8153 1
      vertex 1.71953 35.5 1
      vertex 1.55013 35.445 1
    endloop
  endfacet
  facet normal 0 0 -1
    outer loop
      vertex 0.940022 36.8153 1
      vertex 1.55013 35.445 1
      vertex 1.01603 35.1366 1
    endloop
  endfacet
  facet normal 0 0 -1
    outer loop
      vertex 1.71953 35.5 1
      vertex 0.940022 36.8153 1
      vertex 1.82479 37.1028 1
    endloop
  endfacet
  facet normal 0 0 -1
    outer loop
      vertex -0.5 35.7789 1
      vertex 1.01603 35.1366 1
      vertex 0.557723 34.7239 1
    endloop
  endfacet
  facet normal 0 0 -1
    outer loop
      vertex -0.5 35.7789 1
      vertex 0.557723 34.7239 1
      vertex 0.195226 34.225 1
    endloop
  endfacet
  facet normal 0 0 -1
    outer loop
      vertex 1.01603 35.1366 1
      vertex 0.134356 36.3501 1
      vertex 0.940022 36.8153 1
    endloop
  endfacet
  facet normal 0 0 -1
    outer loop
      vertex -0.5 33.5 1
      vertex 0.195226 34.225 1
      vertex -0.0556164 33.6616 1
    endloop
  endfacet
  facet normal 0 0 -1
    outer loop
      vertex -0.5 33.5 1
      vertex -0.0556164 33.6616 1
      vertex -0.0899654 33.5 1
    endloop
  endfacet
  facet normal -0 0 -1
    outer loop
      vertex 0.195226 34.225 1
      vertex -0.5 33.5 1
      vertex -0.5 35.7789 1
    endloop
  endfacet
  facet normal 0 0 -1
    outer loop
      vertex 1.01603 35.1366 1
      vertex -0.5 35.7789 1
      vertex 0.134356 36.3501 1
    endloop
  endfacet
  facet normal 0 0 -1
    outer loop
      vertex 45 33.5 1
      vertex 46.6028 33.6752 1
      vertex 46.6212 33.5 1
    endloop
  endfacet
  facet normal 0 0 -1
    outer loop
      vertex 46.6028 33.6752 1
      vertex 45 33.7805 1
      vertex 46.3153 34.56 1
    endloop
  endfacet
  facet normal -0 0 -1
    outer loop
      vertex 46.3153 34.56 1
      vertex 44.945 33.9499 1
      vertex 45.8501 35.3656 1
    endloop
  endfacet
  facet normal -0 0 -1
    outer loop
      vertex 46.6028 33.6752 1
      vertex 45 33.5 1
      vertex 45 33.7805 1
    endloop
  endfacet
  facet normal 0 0 -1
    outer loop
      vertex 46.3153 34.56 1
      vertex 45 33.7805 1
      vertex 44.945 33.9499 1
    endloop
  endfacet
  facet normal 0 0 -1
    outer loop
      vertex 44.6366 34.484 1
      vertex 45.8501 35.3656 1
      vertex 44.945 33.9499 1
    endloop
  endfacet
  facet normal -0 0 -1
    outer loop
      vertex 45.8501 35.3656 1
      vertex 44.6366 34.484 1
      vertex 45.2276 36.057 1
    endloop
  endfacet
  facet normal 0 0 -1
    outer loop
      vertex 44.2239 34.9423 1
      vertex 45.2276 36.057 1
      vertex 44.6366 34.484 1
    endloop
  endfacet
  facet normal -0 0 -1
    outer loop
      vertex 45.2276 36.057 1
      vertex 44.2239 34.9423 1
      vertex 44.475 36.6038 1
    endloop
  endfacet
  facet normal 0 0 -1
    outer loop
      vertex 43.725 35.3048 1
      vertex 44.475 36.6038 1
      vertex 44.2239 34.9423 1
    endloop
  endfacet
  facet normal 0 0 -1
    outer loop
      vertex 43.2865 35.5 1
      vertex 44.475 36.6038 1
      vertex 43.725 35.3048 1
    endloop
  endfacet
  facet normal -0 0 -1
    outer loop
      vertex 44.475 36.6038 1
      vertex 43.2865 35.5 1
      vertex 43.6251 36.9822 1
    endloop
  endfacet
  facet normal 0 0 -1
    outer loop
      vertex 43.2865 35.5 1
      vertex 42.7151 37.1756 1
      vertex 43.6251 36.9822 1
    endloop
  endfacet
  facet normal 0 0 -1
    outer loop
      vertex 43.2865 35.5 1
      vertex 42.25 37.1756 1
      vertex 42.7151 37.1756 1
    endloop
  endfacet
  facet normal 0 0 -1
    outer loop
      vertex 39 35.5 1
      vertex 42.25 37.1756 1
      vertex 43.2865 35.5 1
    endloop
  endfacet
  facet normal 0 0 -1
    outer loop
      vertex 39 37.2 1
      vertex 42.25 37.1756 1
      vertex 39 35.5 1
    endloop
  endfacet
  facet normal 0 0 -1
    outer loop
      vertex 42.25 37.1756 1
      vertex 39 37.2 1
      vertex 42.25 37.2 1
    endloop
  endfacet
  facet normal 1 -0 0
    outer loop
      vertex -0.5 33.5 1
      vertex -0.5 35.7789 0
      vertex -0.5 35.7789 1
    endloop
  endfacet
  facet normal 1 0 0
    outer loop
      vertex -0.5 35.7789 0
      vertex -0.5 33.5 1
      vertex -0.5 33.5 0
    endloop
  endfacet
  facet normal 0 1 -0
    outer loop
      vertex -0.0899654 33.5 0
      vertex -0.5 33.5 1
      vertex -0.0899654 33.5 1
    endloop
  endfacet
  facet normal 0 1 0
    outer loop
      vertex -0.5 33.5 1
      vertex -0.0899654 33.5 0
      vertex -0.5 33.5 0
    endloop
  endfacet
  facet normal 0 1 -0
    outer loop
      vertex 46.6212 33.5 0
      vertex 45 33.5 1
      vertex 46.6212 33.5 1
    endloop
  endfacet
  facet normal 0 1 0
    outer loop
      vertex 45 33.5 1
      vertex 46.6212 33.5 0
      vertex 45 33.5 0
    endloop
  endfacet
  facet normal -1 0 0
    outer loop
      vertex 39 35.5 1
      vertex 39 37.2 2.5
      vertex 39 37.2 1
    endloop
  endfacet
  facet normal -1 -0 0
    outer loop
      vertex 39 37.2 2.5
      vertex 39 35.5 1
      vertex 39 35.5 2.5
    endloop
  endfacet
  facet normal 0 0 -1
    outer loop
      vertex 6 35.5 2.5
      vertex 39 37.2 2.5
      vertex 39 35.5 2.5
    endloop
  endfacet
  facet normal -0 0 -1
    outer loop
      vertex 39 37.2 2.5
      vertex 6 35.5 2.5
      vertex 6 37.2 2.5
    endloop
  endfacet
  facet normal 1 -0 0
    outer loop
      vertex 6 35.5 2.5
      vertex 6 37.2 1
      vertex 6 37.2 2.5
    endloop
  endfacet
  facet normal 1 0 0
    outer loop
      vertex 6 37.2 1
      vertex 6 35.5 2.5
      vertex 6 35.5 1
    endloop
  endfacet
  facet normal -1 0 0
    outer loop
      vertex 39 -1.7 1
      vertex 39 -0.2 2.5
      vertex 39 -0.2 1
    endloop
  endfacet
  facet normal -1 -0 0
    outer loop
      vertex 39 -0.2 2.5
      vertex 39 -1.7 1
      vertex 39 -1.7 2.5
    endloop
  endfacet
  facet normal 0 0 -1
    outer loop
      vertex 6 -1.7 2.5
      vertex 39 -0.2 2.5
      vertex 39 -1.7 2.5
    endloop
  endfacet
  facet normal -0 0 -1
    outer loop
      vertex 39 -0.2 2.5
      vertex 6 -1.7 2.5
      vertex 6 -0.2 2.5
    endloop
  endfacet
  facet normal 1 -0 0
    outer loop
      vertex 6 -1.7 2.5
      vertex 6 -0.2 1
      vertex 6 -0.2 2.5
    endloop
  endfacet
  facet normal 1 0 0
    outer loop
      vertex 6 -0.2 1
      vertex 6 -1.7 2.5
      vertex 6 -1.7 1
    endloop
  endfacet
  facet normal -1 0 0
    outer loop
      vertex 46.2 16.75 0
      vertex 46.2 18.75 1
      vertex 46.2 18.75 0
    endloop
  endfacet
  facet normal -1 -0 0
    outer loop
      vertex 46.2 18.75 1
      vertex 46.2 16.75 0
      vertex 46.2 16.75 1
    endloop
  endfacet
  facet normal 0 0 -1
    outer loop
      vertex -1.2 16.75 1
      vertex -0.2 18.75 1
      vertex -0.2 16.75 1
    endloop
  endfacet
  facet normal -0 0 -1
    outer loop
      vertex -0.2 18.75 1
      vertex -1.2 16.75 1
      vertex -1.2 18.75 1
    endloop
  endfacet
  facet normal 0 0 -1
    outer loop
      vertex 45 16.75 1
      vertex 46.2 18.75 1
      vertex 46.2 16.75 1
    endloop
  endfacet
  facet normal -0 0 -1
    outer loop
      vertex 46.2 18.75 1
      vertex 45 16.75 1
      vertex 45 18.75 1
    endloop
  endfacet
  facet normal 1 -0 0
    outer loop
      vertex -1.2 16.75 1
      vertex -1.2 18.75 0
      vertex -1.2 18.75 1
    endloop
  endfacet
  facet normal 1 0 0
    outer loop
      vertex -1.2 18.75 0
      vertex -1.2 16.75 1
      vertex -1.2 16.75 0
    endloop
  endfacet
  facet normal 0 -1 0
    outer loop
      vertex -1.2 18.75 0
      vertex -0.2 18.75 1
      vertex -1.2 18.75 1
    endloop
  endfacet
  facet normal 0 -1 -0
    outer loop
      vertex -0.2 18.75 1
      vertex -1.2 18.75 0
      vertex -0.2 18.75 0
    endloop
  endfacet
  facet normal 0 -1 0
    outer loop
      vertex 45 18.75 0
      vertex 46.2 18.75 1
      vertex 45 18.75 1
    endloop
  endfacet
  facet normal 0 -1 -0
    outer loop
      vertex 46.2 18.75 1
      vertex 45 18.75 0
      vertex 46.2 18.75 0
    endloop
  endfacet
  facet normal 0 1 -0
    outer loop
      vertex -0.2 16.75 0
      vertex -1.2 16.75 1
      vertex -0.2 16.75 1
    endloop
  endfacet
  facet normal 0 1 0
    outer loop
      vertex -1.2 16.75 1
      vertex -0.2 16.75 0
      vertex -1.2 16.75 0
    endloop
  endfacet
  facet normal 0 1 -0
    outer loop
      vertex 46.2 16.75 0
      vertex 45 16.75 1
      vertex 46.2 16.75 1
    endloop
  endfacet
  facet normal 0 1 0
    outer loop
      vertex 45 16.75 1
      vertex 46.2 16.75 0
      vertex 45 16.75 0
    endloop
  endfacet
endsolid OpenSCAD_Model
