solid OpenSCAD_Model
  facet normal 0 0 1
    outer loop
      vertex 42.25 38.65 8.6
      vertex 2.75 38.65 8.6
      vertex 42.25 38.6256 8.6
    endloop
  endfacet
  facet normal 0 0 1
    outer loop
      vertex 46.3153 36.01 8.6
      vertex 44.945 35.3999 8.6
      vertex 45 35.2305 8.6
    endloop
  endfacet
  facet normal 0 0 1
    outer loop
      vertex 45.8501 36.8156 8.6
      vertex 44.6366 35.934 8.6
      vertex 44.945 35.3999 8.6
    endloop
  endfacet
  facet normal 0 0 1
    outer loop
      vertex 44.2239 36.3923 8.6
      vertex 45.2276 37.507 8.6
      vertex 44.475 38.0538 8.6
    endloop
  endfacet
  facet normal 0 0 1
    outer loop
      vertex 45.2276 37.507 8.6
      vertex 44.2239 36.3923 8.6
      vertex 44.6366 35.934 8.6
    endloop
  endfacet
  facet normal 0 0 1
    outer loop
      vertex 44.475 38.0538 8.6
      vertex 43.725 36.7548 8.6
      vertex 44.2239 36.3923 8.6
    endloop
  endfacet
  facet normal 0 0 1
    outer loop
      vertex 43.2865 36.95 8.6
      vertex 44.475 38.0538 8.6
      vertex 43.6251 38.4322 8.6
    endloop
  endfacet
  facet normal 0 0 1
    outer loop
      vertex 44.475 38.0538 8.6
      vertex 43.2865 36.95 8.6
      vertex 43.725 36.7548 8.6
    endloop
  endfacet
  facet normal 0 0 1
    outer loop
      vertex 42.7151 38.6256 8.6
      vertex 43.2865 36.95 8.6
      vertex 43.6251 38.4322 8.6
    endloop
  endfacet
  facet normal -0 0 1
    outer loop
      vertex 42.25 38.6256 8.6
      vertex 43.2865 36.95 8.6
      vertex 42.7151 38.6256 8.6
    endloop
  endfacet
  facet normal 0 0 1
    outer loop
      vertex 2.75 38.65 8.6
      vertex 43.2865 36.95 8.6
      vertex 42.25 38.6256 8.6
    endloop
  endfacet
  facet normal 0 0 1
    outer loop
      vertex 1.71953 36.95 8.6
      vertex 2.75 38.65 8.6
      vertex 1.82479 38.5528 8.6
    endloop
  endfacet
  facet normal 0 0 1
    outer loop
      vertex 2.75 38.65 8.6
      vertex 1.71953 36.95 8.6
      vertex 43.2865 36.95 8.6
    endloop
  endfacet
  facet normal -0 0 1
    outer loop
      vertex 0.940022 38.2653 8.6
      vertex 1.71953 36.95 8.6
      vertex 1.82479 38.5528 8.6
    endloop
  endfacet
  facet normal 0 0 1
    outer loop
      vertex 1.71953 36.95 8.6
      vertex 0.940022 38.2653 8.6
      vertex 1.55013 36.895 8.6
    endloop
  endfacet
  facet normal 0 0 1
    outer loop
      vertex 1.55013 36.895 8.6
      vertex 0.940022 38.2653 8.6
      vertex 1.01603 36.5866 8.6
    endloop
  endfacet
  facet normal -0 0 1
    outer loop
      vertex 0.134356 37.8001 8.6
      vertex 1.01603 36.5866 8.6
      vertex 0.940022 38.2653 8.6
    endloop
  endfacet
  facet normal 0 0 1
    outer loop
      vertex 1.01603 36.5866 8.6
      vertex 0.134356 37.8001 8.6
      vertex 0.557723 36.1739 8.6
    endloop
  endfacet
  facet normal -0 0 1
    outer loop
      vertex -0.556994 37.1776 8.6
      vertex 0.557723 36.1739 8.6
      vertex 0.134356 37.8001 8.6
    endloop
  endfacet
  facet normal 0 0 1
    outer loop
      vertex 0.557723 36.1739 8.6
      vertex -0.556994 37.1776 8.6
      vertex 0.195226 35.675 8.6
    endloop
  endfacet
  facet normal -0 0 1
    outer loop
      vertex -1.10381 36.425 8.6
      vertex 0.195226 35.675 8.6
      vertex -0.556994 37.1776 8.6
    endloop
  endfacet
  facet normal 0 0 1
    outer loop
      vertex -0.183839 34.5084 8.6
      vertex -0.2 34.2 8.6
      vertex -0.183839 34.2 8.6
    endloop
  endfacet
  facet normal 0 0 1
    outer loop
      vertex -1.7 4 8.6
      vertex -0.2 4 8.6
      vertex -0.2 34.2 8.6
    endloop
  endfacet
  facet normal 0 0 1
    outer loop
      vertex 0.195226 35.675 8.6
      vertex -1.10381 36.425 8.6
      vertex -0.0556164 35.1116 8.6
    endloop
  endfacet
  facet normal -0 0 1
    outer loop
      vertex -1.4822 35.5751 8.6
      vertex -0.0556164 35.1116 8.6
      vertex -1.10381 36.425 8.6
    endloop
  endfacet
  facet normal 0 0 1
    outer loop
      vertex -0.0556164 35.1116 8.6
      vertex -1.4822 35.5751 8.6
      vertex -0.183839 34.5084 8.6
    endloop
  endfacet
  facet normal 0 0 1
    outer loop
      vertex -1.7 4 8.6
      vertex -0.2 34.2 8.6
      vertex -1.67562 34.2 8.6
    endloop
  endfacet
  facet normal -0 0 1
    outer loop
      vertex -1.67562 34.6651 8.6
      vertex -0.183839 34.5084 8.6
      vertex -1.4822 35.5751 8.6
    endloop
  endfacet
  facet normal 0 -0 1
    outer loop
      vertex -1.60276 3.07479 8.6
      vertex -0.2 4 8.6
      vertex -1.7 4 8.6
    endloop
  endfacet
  facet normal 0 0 1
    outer loop
      vertex -1.67562 34.2 8.6
      vertex -0.183839 34.5084 8.6
      vertex -1.67562 34.6651 8.6
    endloop
  endfacet
  facet normal 0 0 1
    outer loop
      vertex -0.2 4 8.6
      vertex -0.850125 1.38436 8.6
      vertex -0.227631 0.693006 8.6
    endloop
  endfacet
  facet normal 0 0 1
    outer loop
      vertex -0.183839 34.5084 8.6
      vertex -1.67562 34.2 8.6
      vertex -0.2 34.2 8.6
    endloop
  endfacet
  facet normal 0 0 1
    outer loop
      vertex -0.2 4 8.6
      vertex -1.31528 2.19002 8.6
      vertex -0.850125 1.38436 8.6
    endloop
  endfacet
  facet normal 0 0 1
    outer loop
      vertex -0.2 4 8.6
      vertex -1.60276 3.07479 8.6
      vertex -1.31528 2.19002 8.6
    endloop
  endfacet
  facet normal -0 0 1
    outer loop
      vertex -1.7 34.2 8.6
      vertex -1.7 4 8.6
      vertex -1.67562 34.2 8.6
    endloop
  endfacet
  facet normal 0 0 1
    outer loop
      vertex 46.7 34.2 8.6
      vertex 46.6756 4 8.6
      vertex 46.7 4 8.6
    endloop
  endfacet
  facet normal 0 0 1
    outer loop
      vertex 45 35.2305 8.6
      vertex 46.7 34.2 8.6
      vertex 46.6028 35.1252 8.6
    endloop
  endfacet
  facet normal 0 0 1
    outer loop
      vertex 46.7 34.2 8.6
      vertex 45 35.2305 8.6
      vertex 46.6756 4 8.6
    endloop
  endfacet
  facet normal 0 0 1
    outer loop
      vertex 45 2.96348 8.6
      vertex 46.6756 4 8.6
      vertex 45 35.2305 8.6
    endloop
  endfacet
  facet normal -0 0 1
    outer loop
      vertex 45 35.2305 8.6
      vertex 46.6028 35.1252 8.6
      vertex 46.3153 36.01 8.6
    endloop
  endfacet
  facet normal 0 0 1
    outer loop
      vertex 46.6756 4 8.6
      vertex 45 2.96348 8.6
      vertex 46.6756 3.53485 8.6
    endloop
  endfacet
  facet normal 0 0 1
    outer loop
      vertex 44.945 35.3999 8.6
      vertex 46.3153 36.01 8.6
      vertex 45.8501 36.8156 8.6
    endloop
  endfacet
  facet normal 0 0 1
    outer loop
      vertex 46.6756 3.53485 8.6
      vertex 45 2.96348 8.6
      vertex 46.4822 2.62488 8.6
    endloop
  endfacet
  facet normal 0 0 1
    outer loop
      vertex 44.6366 35.934 8.6
      vertex 45.8501 36.8156 8.6
      vertex 45.2276 37.507 8.6
    endloop
  endfacet
  facet normal 0 0 1
    outer loop
      vertex 46.4822 2.62488 8.6
      vertex 45 2.96348 8.6
      vertex 46.1038 1.775 8.6
    endloop
  endfacet
  facet normal -0 0 1
    outer loop
      vertex 44.8048 2.525 8.6
      vertex 46.1038 1.775 8.6
      vertex 45 2.96348 8.6
    endloop
  endfacet
  facet normal 0 0 1
    outer loop
      vertex 46.1038 1.775 8.6
      vertex 44.8048 2.525 8.6
      vertex 45.557 1.02237 8.6
    endloop
  endfacet
  facet normal -0 0 1
    outer loop
      vertex 44.4423 2.02606 8.6
      vertex 45.557 1.02237 8.6
      vertex 44.8048 2.525 8.6
    endloop
  endfacet
  facet normal 0 0 1
    outer loop
      vertex 45.557 1.02237 8.6
      vertex 44.4423 2.02606 8.6
      vertex 44.8656 0.399875 8.6
    endloop
  endfacet
  facet normal -0 0 1
    outer loop
      vertex 43.984 1.6134 8.6
      vertex 44.8656 0.399875 8.6
      vertex 44.4423 2.02606 8.6
    endloop
  endfacet
  facet normal 0 0 1
    outer loop
      vertex 44.8656 0.399875 8.6
      vertex 43.984 1.6134 8.6
      vertex 44.06 -0.0652771 8.6
    endloop
  endfacet
  facet normal -0 0 1
    outer loop
      vertex 43.4499 1.30504 8.6
      vertex 44.06 -0.0652771 8.6
      vertex 43.984 1.6134 8.6
    endloop
  endfacet
  facet normal 0 0 1
    outer loop
      vertex 43.4499 1.30504 8.6
      vertex 43.1752 -0.352757 8.6
      vertex 44.06 -0.0652771 8.6
    endloop
  endfacet
  facet normal -0 0 1
    outer loop
      vertex 42.8633 1.11446 8.6
      vertex 43.1752 -0.352757 8.6
      vertex 43.4499 1.30504 8.6
    endloop
  endfacet
  facet normal 0 0 1
    outer loop
      vertex 42.8633 1.11446 8.6
      vertex 42.25 1.05 8.6
      vertex 43.1752 -0.352757 8.6
    endloop
  endfacet
  facet normal 0 0 1
    outer loop
      vertex 42.25 1.05 8.6
      vertex 42.25 -0.45 8.6
      vertex 43.1752 -0.352757 8.6
    endloop
  endfacet
  facet normal -0 0 1
    outer loop
      vertex 2.75 1.05 8.6
      vertex 42.25 -0.45 8.6
      vertex 42.25 1.05 8.6
    endloop
  endfacet
  facet normal -0 0 1
    outer loop
      vertex 2.75 -0.425622 8.6
      vertex 42.25 -0.45 8.6
      vertex 2.75 1.05 8.6
    endloop
  endfacet
  facet normal 0 0 1
    outer loop
      vertex 42.25 -0.45 8.6
      vertex 2.75 -0.425622 8.6
      vertex 2.75 -0.45 8.6
    endloop
  endfacet
  facet normal -0 0 1
    outer loop
      vertex 2.44164 1.06616 8.6
      vertex 2.75 1.05 8.6
      vertex 2.75 1.06616 8.6
    endloop
  endfacet
  facet normal 0 0 1
    outer loop
      vertex 2.75 1.05 8.6
      vertex 2.44164 1.06616 8.6
      vertex 2.75 -0.425622 8.6
    endloop
  endfacet
  facet normal 0 0 1
    outer loop
      vertex 2.44164 1.06616 8.6
      vertex 2.28485 -0.425622 8.6
      vertex 2.75 -0.425622 8.6
    endloop
  endfacet
  facet normal 0 0 1
    outer loop
      vertex 1.8384 1.19438 8.6
      vertex 2.28485 -0.425622 8.6
      vertex 2.44164 1.06616 8.6
    endloop
  endfacet
  facet normal 0 0 1
    outer loop
      vertex 1.8384 1.19438 8.6
      vertex 1.37488 -0.232201 8.6
      vertex 2.28485 -0.425622 8.6
    endloop
  endfacet
  facet normal 0 0 1
    outer loop
      vertex 1.275 1.44523 8.6
      vertex 1.37488 -0.232201 8.6
      vertex 1.8384 1.19438 8.6
    endloop
  endfacet
  facet normal 0 0 1
    outer loop
      vertex 0.525001 0.146188 8.6
      vertex 1.275 1.44523 8.6
      vertex 0.776065 1.80772 8.6
    endloop
  endfacet
  facet normal 0 0 1
    outer loop
      vertex 1.275 1.44523 8.6
      vertex 0.525001 0.146188 8.6
      vertex 1.37488 -0.232201 8.6
    endloop
  endfacet
  facet normal 0 0 1
    outer loop
      vertex -0.227631 0.693006 8.6
      vertex 0.776065 1.80772 8.6
      vertex 0.3634 2.26603 8.6
    endloop
  endfacet
  facet normal 0 0 1
    outer loop
      vertex -0.227631 0.693006 8.6
      vertex 0.3634 2.26603 8.6
      vertex 0.0550413 2.80013 8.6
    endloop
  endfacet
  facet normal 0 0 1
    outer loop
      vertex -0.227631 0.693006 8.6
      vertex 0.0550413 2.80013 8.6
      vertex -0.135535 3.38666 8.6
    endloop
  endfacet
  facet normal 0 0 1
    outer loop
      vertex 0.776065 1.80772 8.6
      vertex -0.227631 0.693006 8.6
      vertex 0.525001 0.146188 8.6
    endloop
  endfacet
  facet normal 0 0 1
    outer loop
      vertex -0.227631 0.693006 8.6
      vertex -0.135535 3.38666 8.6
      vertex -0.2 4 8.6
    endloop
  endfacet
  facet normal 0 0 -1
    outer loop
      vertex 46.7 4.5 1.6
      vertex 46.2 18 1.6
      vertex 46.7 33.7 1.6
    endloop
  endfacet
  facet normal 0 0 -1
    outer loop
      vertex 45 4.5 1.6
      vertex 46.2 18 1.6
      vertex 46.7 4.5 1.6
    endloop
  endfacet
  facet normal -0 0 -1
    outer loop
      vertex 46.2 18 1.6
      vertex 45 4.5 1.6
      vertex 45 18 1.6
    endloop
  endfacet
  facet normal 0 0 -1
    outer loop
      vertex 46.2 20 1.6
      vertex 46.7 33.7 1.6
      vertex 46.2 18 1.6
    endloop
  endfacet
  facet normal 0 0 -1
    outer loop
      vertex 45 33.7 1.6
      vertex 46.2 20 1.6
      vertex 45 20 1.6
    endloop
  endfacet
  facet normal 0 0 -1
    outer loop
      vertex 46.2 20 1.6
      vertex 45 33.7 1.6
      vertex 46.7 33.7 1.6
    endloop
  endfacet
  facet normal 0 0 -1
    outer loop
      vertex -0.2 4.5 1.6
      vertex -1.2 18 1.6
      vertex -0.2 18 1.6
    endloop
  endfacet
  facet normal 0 0 -1
    outer loop
      vertex -1.7 20.75 1.6
      vertex -1.2 18 1.6
      vertex -1.7 4.5 1.6
    endloop
  endfacet
  facet normal 0 0 -1
    outer loop
      vertex -1.7 4.5 1.6
      vertex -1.2 18 1.6
      vertex -0.2 4.5 1.6
    endloop
  endfacet
  facet normal 0 0 -1
    outer loop
      vertex -1.2 20 1.6
      vertex -0.2 20.75 1.6
      vertex -0.2 20 1.6
    endloop
  endfacet
  facet normal 0 0 -1
    outer loop
      vertex -1.2 20 1.6
      vertex -1.7 20.75 1.6
      vertex -0.2 20.75 1.6
    endloop
  endfacet
  facet normal 0 0 -1
    outer loop
      vertex -1.2 18 1.6
      vertex -1.7 20.75 1.6
      vertex -1.2 20 1.6
    endloop
  endfacet
  facet normal 0 0 -1
    outer loop
      vertex -1.7 29.95 1.6
      vertex -0.2 33.7 1.6
      vertex -0.2 29.95 1.6
    endloop
  endfacet
  facet normal -0 0 -1
    outer loop
      vertex -0.2 33.7 1.6
      vertex -1.7 29.95 1.6
      vertex -1.7 33.7 1.6
    endloop
  endfacet
  facet normal -1 0 0
    outer loop
      vertex 2.75 -0.45 2.7
      vertex 2.75 -0.425622 8.6
      vertex 2.75 -0.425622 2.7
    endloop
  endfacet
  facet normal -1 -0 0
    outer loop
      vertex 2.75 -0.425622 8.6
      vertex 2.75 -0.45 2.7
      vertex 2.75 -0.45 8.6
    endloop
  endfacet
  facet normal -0.951056 -0.309018 0
    outer loop
      vertex -1.31528 2.19002 2.7
      vertex -1.60276 3.07479 8.6
      vertex -1.60276 3.07479 2.7
    endloop
  endfacet
  facet normal -0.951056 -0.309018 0
    outer loop
      vertex -1.60276 3.07479 8.6
      vertex -1.31528 2.19002 2.7
      vertex -1.31528 2.19002 8.6
    endloop
  endfacet
  facet normal -0.994522 -0.104525 0
    outer loop
      vertex -1.60276 3.07479 2.7
      vertex -1.7 4 8.6
      vertex -1.7 4 2.7
    endloop
  endfacet
  facet normal -0.994522 -0.104525 0
    outer loop
      vertex -1.7 4 8.6
      vertex -1.60276 3.07479 2.7
      vertex -1.60276 3.07479 8.6
    endloop
  endfacet
  facet normal -0.406735 -0.913546 0
    outer loop
      vertex 0.525001 0.146188 2.7
      vertex 1.37488 -0.232201 8.6
      vertex 0.525001 0.146188 8.6
    endloop
  endfacet
  facet normal -0.406735 -0.913546 -0
    outer loop
      vertex 1.37488 -0.232201 8.6
      vertex 0.525001 0.146188 2.7
      vertex 1.37488 -0.232201 2.7
    endloop
  endfacet
  facet normal -0.587784 -0.809018 0
    outer loop
      vertex -0.227631 0.693006 2.7
      vertex 0.525001 0.146188 8.6
      vertex -0.227631 0.693006 8.6
    endloop
  endfacet
  facet normal -0.587784 -0.809018 -0
    outer loop
      vertex 0.525001 0.146188 8.6
      vertex -0.227631 0.693006 2.7
      vertex 0.525001 0.146188 2.7
    endloop
  endfacet
  facet normal 0 -1 0
    outer loop
      vertex 2.28485 -0.425622 2.7
      vertex 2.75 -0.425622 8.6
      vertex 2.28485 -0.425622 8.6
    endloop
  endfacet
  facet normal 0 -1 -0
    outer loop
      vertex 2.75 -0.425622 8.6
      vertex 2.28485 -0.425622 2.7
      vertex 2.75 -0.425622 2.7
    endloop
  endfacet
  facet normal -0.743147 -0.669128 0
    outer loop
      vertex -0.227631 0.693006 2.7
      vertex -0.850125 1.38436 8.6
      vertex -0.850125 1.38436 2.7
    endloop
  endfacet
  facet normal -0.743147 -0.669128 0
    outer loop
      vertex -0.850125 1.38436 8.6
      vertex -0.227631 0.693006 2.7
      vertex -0.227631 0.693006 8.6
    endloop
  endfacet
  facet normal -0.866022 -0.500006 0
    outer loop
      vertex -0.850125 1.38436 2.7
      vertex -1.31528 2.19002 8.6
      vertex -1.31528 2.19002 2.7
    endloop
  endfacet
  facet normal -0.866022 -0.500006 0
    outer loop
      vertex -1.31528 2.19002 8.6
      vertex -0.850125 1.38436 2.7
      vertex -0.850125 1.38436 8.6
    endloop
  endfacet
  facet normal -0.207913 -0.978147 0
    outer loop
      vertex 1.37488 -0.232201 2.7
      vertex 2.28485 -0.425622 8.6
      vertex 1.37488 -0.232201 8.6
    endloop
  endfacet
  facet normal -0.207913 -0.978147 -0
    outer loop
      vertex 2.28485 -0.425622 8.6
      vertex 1.37488 -0.232201 2.7
      vertex 2.28485 -0.425622 2.7
    endloop
  endfacet
  facet normal 1 -0 0
    outer loop
      vertex 42.25 38.6256 8.6
      vertex 42.25 38.65 2.7
      vertex 42.25 38.65 8.6
    endloop
  endfacet
  facet normal 1 0 0
    outer loop
      vertex 42.25 38.65 2.7
      vertex 42.25 38.6256 8.6
      vertex 42.25 38.6256 2.7
    endloop
  endfacet
  facet normal 0.951053 0.309028 0
    outer loop
      vertex 46.6028 35.1252 8.6
      vertex 46.3153 36.01 2.7
      vertex 46.3153 36.01 8.6
    endloop
  endfacet
  facet normal 0.951053 0.309028 0
    outer loop
      vertex 46.3153 36.01 2.7
      vertex 46.6028 35.1252 8.6
      vertex 46.6028 35.1252 2.7
    endloop
  endfacet
  facet normal 0.994527 0.104483 0
    outer loop
      vertex 46.7 34.2 8.6
      vertex 46.6028 35.1252 2.7
      vertex 46.6028 35.1252 8.6
    endloop
  endfacet
  facet normal 0.994527 0.104483 0
    outer loop
      vertex 46.6028 35.1252 2.7
      vertex 46.7 34.2 8.6
      vertex 46.7 34.2 2.7
    endloop
  endfacet
  facet normal 0.406737 0.913545 -0
    outer loop
      vertex 44.475 38.0538 2.7
      vertex 43.6251 38.4322 8.6
      vertex 44.475 38.0538 8.6
    endloop
  endfacet
  facet normal 0.406737 0.913545 0
    outer loop
      vertex 43.6251 38.4322 8.6
      vertex 44.475 38.0538 2.7
      vertex 43.6251 38.4322 2.7
    endloop
  endfacet
  facet normal 0.587788 0.809015 -0
    outer loop
      vertex 45.2276 37.507 2.7
      vertex 44.475 38.0538 8.6
      vertex 45.2276 37.507 8.6
    endloop
  endfacet
  facet normal 0.587788 0.809015 0
    outer loop
      vertex 44.475 38.0538 8.6
      vertex 45.2276 37.507 2.7
      vertex 44.475 38.0538 2.7
    endloop
  endfacet
  facet normal 0 1 -0
    outer loop
      vertex 42.7151 38.6256 2.7
      vertex 42.25 38.6256 8.6
      vertex 42.7151 38.6256 8.6
    endloop
  endfacet
  facet normal 0 1 0
    outer loop
      vertex 42.25 38.6256 8.6
      vertex 42.7151 38.6256 2.7
      vertex 42.25 38.6256 2.7
    endloop
  endfacet
  facet normal 0.743166 0.669107 0
    outer loop
      vertex 45.8501 36.8156 8.6
      vertex 45.2276 37.507 2.7
      vertex 45.2276 37.507 8.6
    endloop
  endfacet
  facet normal 0.743166 0.669107 0
    outer loop
      vertex 45.2276 37.507 2.7
      vertex 45.8501 36.8156 8.6
      vertex 45.8501 36.8156 2.7
    endloop
  endfacet
  facet normal 0.865985 0.50007 0
    outer loop
      vertex 46.3153 36.01 8.6
      vertex 45.8501 36.8156 2.7
      vertex 45.8501 36.8156 8.6
    endloop
  endfacet
  facet normal 0.865985 0.50007 0
    outer loop
      vertex 45.8501 36.8156 2.7
      vertex 46.3153 36.01 8.6
      vertex 46.3153 36.01 2.7
    endloop
  endfacet
  facet normal 0.207884 0.978153 -0
    outer loop
      vertex 43.6251 38.4322 2.7
      vertex 42.7151 38.6256 8.6
      vertex 43.6251 38.4322 8.6
    endloop
  endfacet
  facet normal 0.207884 0.978153 0
    outer loop
      vertex 42.7151 38.6256 8.6
      vertex 43.6251 38.4322 2.7
      vertex 42.7151 38.6256 2.7
    endloop
  endfacet
  facet normal 0 1 -0
    outer loop
      vertex -1.67562 34.2 2.7
      vertex -1.7 34.2 8.6
      vertex -1.67562 34.2 8.6
    endloop
  endfacet
  facet normal 0 1 0
    outer loop
      vertex -1.7 34.2 8.6
      vertex -1.67562 34.2 2.7
      vertex -1.7 34.2 2.7
    endloop
  endfacet
  facet normal -0.309038 0.95105 0
    outer loop
      vertex 1.82479 38.5528 2.7
      vertex 0.940022 38.2653 8.6
      vertex 1.82479 38.5528 8.6
    endloop
  endfacet
  facet normal -0.309038 0.95105 0
    outer loop
      vertex 0.940022 38.2653 8.6
      vertex 1.82479 38.5528 2.7
      vertex 0.940022 38.2653 2.7
    endloop
  endfacet
  facet normal -0.104482 0.994527 0
    outer loop
      vertex 2.75 38.65 2.7
      vertex 1.82479 38.5528 8.6
      vertex 2.75 38.65 8.6
    endloop
  endfacet
  facet normal -0.104482 0.994527 0
    outer loop
      vertex 1.82479 38.5528 8.6
      vertex 2.75 38.65 2.7
      vertex 1.82479 38.5528 2.7
    endloop
  endfacet
  facet normal -0.913549 0.406728 0
    outer loop
      vertex -1.4822 35.5751 2.7
      vertex -1.10381 36.425 8.6
      vertex -1.10381 36.425 2.7
    endloop
  endfacet
  facet normal -0.913549 0.406728 0
    outer loop
      vertex -1.10381 36.425 8.6
      vertex -1.4822 35.5751 2.7
      vertex -1.4822 35.5751 8.6
    endloop
  endfacet
  facet normal -0.809007 0.587799 0
    outer loop
      vertex -1.10381 36.425 2.7
      vertex -0.556994 37.1776 8.6
      vertex -0.556994 37.1776 2.7
    endloop
  endfacet
  facet normal -0.809007 0.587799 0
    outer loop
      vertex -0.556994 37.1776 8.6
      vertex -1.10381 36.425 2.7
      vertex -1.10381 36.425 8.6
    endloop
  endfacet
  facet normal -1 0 0
    outer loop
      vertex -1.67562 34.2 2.7
      vertex -1.67562 34.6651 8.6
      vertex -1.67562 34.6651 2.7
    endloop
  endfacet
  facet normal -1 -0 0
    outer loop
      vertex -1.67562 34.6651 8.6
      vertex -1.67562 34.2 2.7
      vertex -1.67562 34.2 8.6
    endloop
  endfacet
  facet normal -0.669134 0.743142 0
    outer loop
      vertex 0.134356 37.8001 2.7
      vertex -0.556994 37.1776 8.6
      vertex 0.134356 37.8001 8.6
    endloop
  endfacet
  facet normal -0.669134 0.743142 0
    outer loop
      vertex -0.556994 37.1776 8.6
      vertex 0.134356 37.8001 2.7
      vertex -0.556994 37.1776 2.7
    endloop
  endfacet
  facet normal -0.500039 0.866003 0
    outer loop
      vertex 0.940022 38.2653 2.7
      vertex 0.134356 37.8001 8.6
      vertex 0.940022 38.2653 8.6
    endloop
  endfacet
  facet normal -0.500039 0.866003 0
    outer loop
      vertex 0.134356 37.8001 8.6
      vertex 0.940022 38.2653 2.7
      vertex 0.134356 37.8001 2.7
    endloop
  endfacet
  facet normal -0.978149 0.207905 0
    outer loop
      vertex -1.67562 34.6651 2.7
      vertex -1.4822 35.5751 8.6
      vertex -1.4822 35.5751 2.7
    endloop
  endfacet
  facet normal -0.978149 0.207905 0
    outer loop
      vertex -1.4822 35.5751 8.6
      vertex -1.67562 34.6651 2.7
      vertex -1.67562 34.6651 8.6
    endloop
  endfacet
  facet normal 0 -1 0
    outer loop
      vertex 46.6756 4 2.7
      vertex 46.7 4 8.6
      vertex 46.6756 4 8.6
    endloop
  endfacet
  facet normal 0 -1 -0
    outer loop
      vertex 46.7 4 8.6
      vertex 46.6756 4 2.7
      vertex 46.7 4 2.7
    endloop
  endfacet
  facet normal 0.309008 -0.951059 0
    outer loop
      vertex 43.1752 -0.352757 2.7
      vertex 44.06 -0.0652771 8.6
      vertex 43.1752 -0.352757 8.6
    endloop
  endfacet
  facet normal 0.309008 -0.951059 0
    outer loop
      vertex 44.06 -0.0652771 8.6
      vertex 43.1752 -0.352757 2.7
      vertex 44.06 -0.0652771 2.7
    endloop
  endfacet
  facet normal 0.104529 -0.994522 0
    outer loop
      vertex 42.25 -0.45 2.7
      vertex 43.1752 -0.352757 8.6
      vertex 42.25 -0.45 8.6
    endloop
  endfacet
  facet normal 0.104529 -0.994522 0
    outer loop
      vertex 43.1752 -0.352757 8.6
      vertex 42.25 -0.45 2.7
      vertex 43.1752 -0.352757 2.7
    endloop
  endfacet
  facet normal 0.913542 -0.406745 0
    outer loop
      vertex 46.1038 1.775 8.6
      vertex 46.4822 2.62488 2.7
      vertex 46.4822 2.62488 8.6
    endloop
  endfacet
  facet normal 0.913542 -0.406745 0
    outer loop
      vertex 46.4822 2.62488 2.7
      vertex 46.1038 1.775 8.6
      vertex 46.1038 1.775 2.7
    endloop
  endfacet
  facet normal 0.809026 -0.587773 0
    outer loop
      vertex 45.557 1.02237 8.6
      vertex 46.1038 1.775 2.7
      vertex 46.1038 1.775 8.6
    endloop
  endfacet
  facet normal 0.809026 -0.587773 0
    outer loop
      vertex 46.1038 1.775 2.7
      vertex 45.557 1.02237 8.6
      vertex 45.557 1.02237 2.7
    endloop
  endfacet
  facet normal 1 -0 0
    outer loop
      vertex 46.6756 3.53485 8.6
      vertex 46.6756 4 2.7
      vertex 46.6756 4 8.6
    endloop
  endfacet
  facet normal 1 0 0
    outer loop
      vertex 46.6756 4 2.7
      vertex 46.6756 3.53485 8.6
      vertex 46.6756 3.53485 2.7
    endloop
  endfacet
  facet normal 0.669104 -0.743169 0
    outer loop
      vertex 44.8656 0.399875 2.7
      vertex 45.557 1.02237 8.6
      vertex 44.8656 0.399875 8.6
    endloop
  endfacet
  facet normal 0.669104 -0.743169 0
    outer loop
      vertex 45.557 1.02237 8.6
      vertex 44.8656 0.399875 2.7
      vertex 45.557 1.02237 2.7
    endloop
  endfacet
  facet normal 0.500031 -0.866007 0
    outer loop
      vertex 44.06 -0.0652771 2.7
      vertex 44.8656 0.399875 8.6
      vertex 44.06 -0.0652771 8.6
    endloop
  endfacet
  facet normal 0.500031 -0.866007 0
    outer loop
      vertex 44.8656 0.399875 8.6
      vertex 44.06 -0.0652771 2.7
      vertex 44.8656 0.399875 2.7
    endloop
  endfacet
  facet normal 0.978152 -0.207891 0
    outer loop
      vertex 46.4822 2.62488 8.6
      vertex 46.6756 3.53485 2.7
      vertex 46.6756 3.53485 8.6
    endloop
  endfacet
  facet normal 0.978152 -0.207891 0
    outer loop
      vertex 46.6756 3.53485 2.7
      vertex 46.4822 2.62488 8.6
      vertex 46.4822 2.62488 2.7
    endloop
  endfacet
  facet normal 1 0 0
    outer loop
      vertex 46.7 34.2 8.6
      vertex 46.7 33.7 2.7
      vertex 46.7 34.2 2.7
    endloop
  endfacet
  facet normal 1 0 0
    outer loop
      vertex 46.7 33.7 2.7
      vertex 46.7 4.5 2.7
      vertex 46.7 33.7 1.6
    endloop
  endfacet
  facet normal 1 0 0
    outer loop
      vertex 46.7 34.2 8.6
      vertex 46.7 4.5 2.7
      vertex 46.7 33.7 2.7
    endloop
  endfacet
  facet normal 1 -0 0
    outer loop
      vertex 46.7 4 8.6
      vertex 46.7 4.5 2.7
      vertex 46.7 34.2 8.6
    endloop
  endfacet
  facet normal 1 0 0
    outer loop
      vertex 46.7 4.5 2.7
      vertex 46.7 4 8.6
      vertex 46.7 4 2.7
    endloop
  endfacet
  facet normal 1 0 0
    outer loop
      vertex 46.7 33.7 1.6
      vertex 46.7 4.5 2.7
      vertex 46.7 4.5 1.6
    endloop
  endfacet
  facet normal -1 0 0
    outer loop
      vertex -1.7 4.5 2.7
      vertex -1.7 20.75 1.6
      vertex -1.7 4.5 1.6
    endloop
  endfacet
  facet normal -1 0 0
    outer loop
      vertex -1.7 33.7 1.6
      vertex -1.7 29.95 1.6
      vertex -1.7 33.7 2.7
    endloop
  endfacet
  facet normal -1 0 0
    outer loop
      vertex -1.7 33.7 2.7
      vertex -1.7 34.2 8.6
      vertex -1.7 34.2 2.7
    endloop
  endfacet
  facet normal -1 0 0
    outer loop
      vertex -1.7 29.95 6.1
      vertex -1.7 33.7 2.7
      vertex -1.7 29.95 1.6
    endloop
  endfacet
  facet normal -1 0 0
    outer loop
      vertex -1.7 33.7 2.7
      vertex -1.7 29.95 6.1
      vertex -1.7 34.2 8.6
    endloop
  endfacet
  facet normal -1 0 0
    outer loop
      vertex -1.7 20.75 6.1
      vertex -1.7 34.2 8.6
      vertex -1.7 29.95 6.1
    endloop
  endfacet
  facet normal -1 0 0
    outer loop
      vertex -1.7 20.75 1.6
      vertex -1.7 4.5 2.7
      vertex -1.7 20.75 6.1
    endloop
  endfacet
  facet normal -1 0 0
    outer loop
      vertex -1.7 4 8.6
      vertex -1.7 4.5 2.7
      vertex -1.7 4 2.7
    endloop
  endfacet
  facet normal -1 0 0
    outer loop
      vertex -1.7 20.75 6.1
      vertex -1.7 4 8.6
      vertex -1.7 34.2 8.6
    endloop
  endfacet
  facet normal -1 0 0
    outer loop
      vertex -1.7 4.5 2.7
      vertex -1.7 4 8.6
      vertex -1.7 20.75 6.1
    endloop
  endfacet
  facet normal 0 1 0
    outer loop
      vertex 42.25 38.65 8.6
      vertex 39 38.65 4.2
      vertex 2.75 38.65 8.6
    endloop
  endfacet
  facet normal 0 1 -0
    outer loop
      vertex 42.25 38.65 2.7
      vertex 39 38.65 4.2
      vertex 42.25 38.65 8.6
    endloop
  endfacet
  facet normal 0 1 0
    outer loop
      vertex 39 38.65 4.2
      vertex 42.25 38.65 2.7
      vertex 39 38.65 2.7
    endloop
  endfacet
  facet normal 0 1 -0
    outer loop
      vertex 6 38.65 4.2
      vertex 2.75 38.65 8.6
      vertex 39 38.65 4.2
    endloop
  endfacet
  facet normal 0 1 0
    outer loop
      vertex 2.75 38.65 2.7
      vertex 6 38.65 4.2
      vertex 6 38.65 2.7
    endloop
  endfacet
  facet normal 0 1 0
    outer loop
      vertex 6 38.65 4.2
      vertex 2.75 38.65 2.7
      vertex 2.75 38.65 8.6
    endloop
  endfacet
  facet normal 0 -1 0
    outer loop
      vertex 2.75 -0.45 8.6
      vertex 6 -0.45 4.2
      vertex 42.25 -0.45 8.6
    endloop
  endfacet
  facet normal 0 -1 0
    outer loop
      vertex 2.75 -0.45 2.7
      vertex 6 -0.45 4.2
      vertex 2.75 -0.45 8.6
    endloop
  endfacet
  facet normal 0 -1 -0
    outer loop
      vertex 6 -0.45 4.2
      vertex 2.75 -0.45 2.7
      vertex 6 -0.45 2.7
    endloop
  endfacet
  facet normal 0 -1 0
    outer loop
      vertex 39 -0.45 4.2
      vertex 42.25 -0.45 8.6
      vertex 6 -0.45 4.2
    endloop
  endfacet
  facet normal 0 -1 0
    outer loop
      vertex 42.25 -0.45 2.7
      vertex 39 -0.45 4.2
      vertex 39 -0.45 2.7
    endloop
  endfacet
  facet normal 0 -1 0
    outer loop
      vertex 39 -0.45 4.2
      vertex 42.25 -0.45 2.7
      vertex 42.25 -0.45 8.6
    endloop
  endfacet
  facet normal 1 -0 0
    outer loop
      vertex 2.75 1.05 8.6
      vertex 2.75 1.06616 2.7
      vertex 2.75 1.06616 8.6
    endloop
  endfacet
  facet normal 1 0 0
    outer loop
      vertex 2.75 1.06616 2.7
      vertex 2.75 1.05 8.6
      vertex 2.75 1.05 2.7
    endloop
  endfacet
  facet normal 0.951056 0.309019 0
    outer loop
      vertex 0.0550413 2.80013 8.6
      vertex -0.135535 3.38666 2.7
      vertex -0.135535 3.38666 8.6
    endloop
  endfacet
  facet normal 0.951056 0.309019 0
    outer loop
      vertex -0.135535 3.38666 2.7
      vertex 0.0550413 2.80013 8.6
      vertex 0.0550413 2.80013 2.7
    endloop
  endfacet
  facet normal 0.994522 0.104529 0
    outer loop
      vertex -0.135535 3.38666 8.6
      vertex -0.2 4 2.7
      vertex -0.2 4 8.6
    endloop
  endfacet
  facet normal 0.994522 0.104529 0
    outer loop
      vertex -0.2 4 2.7
      vertex -0.135535 3.38666 8.6
      vertex -0.135535 3.38666 2.7
    endloop
  endfacet
  facet normal 0 1 -0
    outer loop
      vertex 2.75 1.06616 2.7
      vertex 2.44164 1.06616 8.6
      vertex 2.75 1.06616 8.6
    endloop
  endfacet
  facet normal 0 1 0
    outer loop
      vertex 2.44164 1.06616 8.6
      vertex 2.75 1.06616 2.7
      vertex 2.44164 1.06616 2.7
    endloop
  endfacet
  facet normal 0.587777 0.809023 -0
    outer loop
      vertex 1.275 1.44523 2.7
      vertex 0.776065 1.80772 8.6
      vertex 1.275 1.44523 8.6
    endloop
  endfacet
  facet normal 0.587777 0.809023 0
    outer loop
      vertex 0.776065 1.80772 8.6
      vertex 1.275 1.44523 2.7
      vertex 0.776065 1.80772 2.7
    endloop
  endfacet
  facet normal 0.406748 0.913541 -0
    outer loop
      vertex 1.8384 1.19438 2.7
      vertex 1.275 1.44523 8.6
      vertex 1.8384 1.19438 8.6
    endloop
  endfacet
  facet normal 0.406748 0.913541 0
    outer loop
      vertex 1.275 1.44523 8.6
      vertex 1.8384 1.19438 2.7
      vertex 1.275 1.44523 2.7
    endloop
  endfacet
  facet normal 0.743144 0.669131 0
    outer loop
      vertex 0.776065 1.80772 8.6
      vertex 0.3634 2.26603 2.7
      vertex 0.3634 2.26603 8.6
    endloop
  endfacet
  facet normal 0.743144 0.669131 0
    outer loop
      vertex 0.3634 2.26603 2.7
      vertex 0.776065 1.80772 8.6
      vertex 0.776065 1.80772 2.7
    endloop
  endfacet
  facet normal 0.866028 0.499995 0
    outer loop
      vertex 0.3634 2.26603 8.6
      vertex 0.0550413 2.80013 2.7
      vertex 0.0550413 2.80013 8.6
    endloop
  endfacet
  facet normal 0.866028 0.499995 0
    outer loop
      vertex 0.0550413 2.80013 2.7
      vertex 0.3634 2.26603 8.6
      vertex 0.3634 2.26603 2.7
    endloop
  endfacet
  facet normal 0.207908 0.978148 -0
    outer loop
      vertex 2.44164 1.06616 2.7
      vertex 1.8384 1.19438 8.6
      vertex 2.44164 1.06616 8.6
    endloop
  endfacet
  facet normal 0.207908 0.978148 0
    outer loop
      vertex 1.8384 1.19438 8.6
      vertex 2.44164 1.06616 2.7
      vertex 1.8384 1.19438 2.7
    endloop
  endfacet
  facet normal -0.951125 -0.308807 0
    outer loop
      vertex 45 35.2305 2.7
      vertex 44.945 35.3999 8.6
      vertex 44.945 35.3999 2.7
    endloop
  endfacet
  facet normal -0.951125 -0.308807 0
    outer loop
      vertex 44.945 35.3999 8.6
      vertex 45 35.2305 2.7
      vertex 45 35.2305 8.6
    endloop
  endfacet
  facet normal -0.587815 -0.808995 0
    outer loop
      vertex 43.725 36.7548 2.7
      vertex 44.2239 36.3923 8.6
      vertex 43.725 36.7548 8.6
    endloop
  endfacet
  facet normal -0.587815 -0.808995 -0
    outer loop
      vertex 44.2239 36.3923 8.6
      vertex 43.725 36.7548 2.7
      vertex 44.2239 36.3923 2.7
    endloop
  endfacet
  facet normal -0.40668 -0.913571 0
    outer loop
      vertex 43.2865 36.95 2.7
      vertex 43.725 36.7548 8.6
      vertex 43.2865 36.95 8.6
    endloop
  endfacet
  facet normal -0.40668 -0.913571 -0
    outer loop
      vertex 43.725 36.7548 8.6
      vertex 43.2865 36.95 2.7
      vertex 43.725 36.7548 2.7
    endloop
  endfacet
  facet normal -0.743109 -0.669171 0
    outer loop
      vertex 44.6366 35.934 2.7
      vertex 44.2239 36.3923 8.6
      vertex 44.2239 36.3923 2.7
    endloop
  endfacet
  facet normal -0.743109 -0.669171 0
    outer loop
      vertex 44.2239 36.3923 8.6
      vertex 44.6366 35.934 2.7
      vertex 44.6366 35.934 8.6
    endloop
  endfacet
  facet normal -0.865999 -0.500045 0
    outer loop
      vertex 44.945 35.3999 2.7
      vertex 44.6366 35.934 8.6
      vertex 44.6366 35.934 2.7
    endloop
  endfacet
  facet normal -0.865999 -0.500045 0
    outer loop
      vertex 44.6366 35.934 8.6
      vertex 44.945 35.3999 2.7
      vertex 44.945 35.3999 8.6
    endloop
  endfacet
  facet normal 0 -1 0
    outer loop
      vertex -0.2 34.2 2.7
      vertex -0.183839 34.2 8.6
      vertex -0.2 34.2 8.6
    endloop
  endfacet
  facet normal 0 -1 -0
    outer loop
      vertex -0.183839 34.2 8.6
      vertex -0.2 34.2 2.7
      vertex -0.183839 34.2 2.7
    endloop
  endfacet
  facet normal 0.308807 -0.951125 0
    outer loop
      vertex 1.55013 36.895 2.7
      vertex 1.71953 36.95 8.6
      vertex 1.55013 36.895 8.6
    endloop
  endfacet
  facet normal 0.308807 -0.951125 0
    outer loop
      vertex 1.71953 36.95 8.6
      vertex 1.55013 36.895 2.7
      vertex 1.71953 36.95 2.7
    endloop
  endfacet
  facet normal 1 -0 0
    outer loop
      vertex -0.183839 34.2 8.6
      vertex -0.183839 34.5084 2.7
      vertex -0.183839 34.5084 8.6
    endloop
  endfacet
  facet normal 1 0 0
    outer loop
      vertex -0.183839 34.5084 2.7
      vertex -0.183839 34.2 8.6
      vertex -0.183839 34.2 2.7
    endloop
  endfacet
  facet normal 0.808998 -0.587812 0
    outer loop
      vertex 0.195226 35.675 8.6
      vertex 0.557723 36.1739 2.7
      vertex 0.557723 36.1739 8.6
    endloop
  endfacet
  facet normal 0.808998 -0.587812 0
    outer loop
      vertex 0.557723 36.1739 2.7
      vertex 0.195226 35.675 8.6
      vertex 0.195226 35.675 2.7
    endloop
  endfacet
  facet normal 0.913545 -0.406737 0
    outer loop
      vertex -0.0556164 35.1116 8.6
      vertex 0.195226 35.675 2.7
      vertex 0.195226 35.675 8.6
    endloop
  endfacet
  facet normal 0.913545 -0.406737 0
    outer loop
      vertex 0.195226 35.675 2.7
      vertex -0.0556164 35.1116 8.6
      vertex -0.0556164 35.1116 2.7
    endloop
  endfacet
  facet normal 0.669165 -0.743114 0
    outer loop
      vertex 0.557723 36.1739 2.7
      vertex 1.01603 36.5866 8.6
      vertex 0.557723 36.1739 8.6
    endloop
  endfacet
  facet normal 0.669165 -0.743114 0
    outer loop
      vertex 1.01603 36.5866 8.6
      vertex 0.557723 36.1739 2.7
      vertex 1.01603 36.5866 2.7
    endloop
  endfacet
  facet normal 0.500045 -0.865999 0
    outer loop
      vertex 1.01603 36.5866 2.7
      vertex 1.55013 36.895 8.6
      vertex 1.01603 36.5866 8.6
    endloop
  endfacet
  facet normal 0.500045 -0.865999 0
    outer loop
      vertex 1.55013 36.895 8.6
      vertex 1.01603 36.5866 2.7
      vertex 1.55013 36.895 2.7
    endloop
  endfacet
  facet normal 0.978145 -0.207925 0
    outer loop
      vertex -0.183839 34.5084 8.6
      vertex -0.0556164 35.1116 2.7
      vertex -0.0556164 35.1116 8.6
    endloop
  endfacet
  facet normal 0.978145 -0.207925 0
    outer loop
      vertex -0.0556164 35.1116 2.7
      vertex -0.183839 34.5084 8.6
      vertex -0.183839 34.5084 2.7
    endloop
  endfacet
  facet normal -0.308991 0.951065 0
    outer loop
      vertex 43.4499 1.30504 2.7
      vertex 42.8633 1.11446 8.6
      vertex 43.4499 1.30504 8.6
    endloop
  endfacet
  facet normal -0.308991 0.951065 0
    outer loop
      vertex 42.8633 1.11446 8.6
      vertex 43.4499 1.30504 2.7
      vertex 42.8633 1.11446 2.7
    endloop
  endfacet
  facet normal -0.104528 0.994522 0
    outer loop
      vertex 42.8633 1.11446 2.7
      vertex 42.25 1.05 8.6
      vertex 42.8633 1.11446 8.6
    endloop
  endfacet
  facet normal -0.104528 0.994522 0
    outer loop
      vertex 42.25 1.05 8.6
      vertex 42.8633 1.11446 2.7
      vertex 42.25 1.05 2.7
    endloop
  endfacet
  facet normal -0.809018 0.587784 0
    outer loop
      vertex 44.4423 2.02606 2.7
      vertex 44.8048 2.525 8.6
      vertex 44.8048 2.525 2.7
    endloop
  endfacet
  facet normal -0.809018 0.587784 0
    outer loop
      vertex 44.8048 2.525 8.6
      vertex 44.4423 2.02606 2.7
      vertex 44.4423 2.02606 8.6
    endloop
  endfacet
  facet normal -0.913564 0.406695 0
    outer loop
      vertex 44.8048 2.525 2.7
      vertex 45 2.96348 8.6
      vertex 45 2.96348 2.7
    endloop
  endfacet
  facet normal -0.913564 0.406695 0
    outer loop
      vertex 45 2.96348 8.6
      vertex 44.8048 2.525 2.7
      vertex 44.8048 2.525 8.6
    endloop
  endfacet
  facet normal -0.669135 0.743141 0
    outer loop
      vertex 44.4423 2.02606 2.7
      vertex 43.984 1.6134 8.6
      vertex 44.4423 2.02606 8.6
    endloop
  endfacet
  facet normal -0.669135 0.743141 0
    outer loop
      vertex 43.984 1.6134 8.6
      vertex 44.4423 2.02606 2.7
      vertex 43.984 1.6134 2.7
    endloop
  endfacet
  facet normal -0.499997 0.866027 0
    outer loop
      vertex 43.984 1.6134 2.7
      vertex 43.4499 1.30504 8.6
      vertex 43.984 1.6134 8.6
    endloop
  endfacet
  facet normal -0.499997 0.866027 0
    outer loop
      vertex 43.4499 1.30504 8.6
      vertex 43.984 1.6134 2.7
      vertex 43.4499 1.30504 2.7
    endloop
  endfacet
  facet normal -1 0 0
    outer loop
      vertex 45 18 1.6
      vertex 45 4.5 1.6
      vertex 45 18 2.7
    endloop
  endfacet
  facet normal -1 0 0
    outer loop
      vertex 45 33.7 1.6
      vertex 45 20 1.6
      vertex 45 33.7 2.7
    endloop
  endfacet
  facet normal -1 0 0
    outer loop
      vertex 45 33.7 2.7
      vertex 45 35.2305 8.6
      vertex 45 35.2305 2.7
    endloop
  endfacet
  facet normal -1 0 0
    outer loop
      vertex 45 20 2.7
      vertex 45 33.7 2.7
      vertex 45 20 1.6
    endloop
  endfacet
  facet normal -1 0 0
    outer loop
      vertex 45 33.7 2.7
      vertex 45 20 2.7
      vertex 45 35.2305 8.6
    endloop
  endfacet
  facet normal -1 0 0
    outer loop
      vertex 45 18 2.7
      vertex 45 35.2305 8.6
      vertex 45 20 2.7
    endloop
  endfacet
  facet normal -1 0 0
    outer loop
      vertex 45 4.5 2.7
      vertex 45 18 2.7
      vertex 45 4.5 1.6
    endloop
  endfacet
  facet normal -1 0 0
    outer loop
      vertex 45 2.96348 8.6
      vertex 45 18 2.7
      vertex 45 4.5 2.7
    endloop
  endfacet
  facet normal -1 0 0
    outer loop
      vertex 45 2.96348 8.6
      vertex 45 4.5 2.7
      vertex 45 2.96348 2.7
    endloop
  endfacet
  facet normal -1 0 0
    outer loop
      vertex 45 18 2.7
      vertex 45 2.96348 8.6
      vertex 45 35.2305 8.6
    endloop
  endfacet
  facet normal 1 0 0
    outer loop
      vertex -0.2 34.2 8.6
      vertex -0.2 33.7 2.7
      vertex -0.2 34.2 2.7
    endloop
  endfacet
  facet normal 1 0 0
    outer loop
      vertex -0.2 29.95 1.6
      vertex -0.2 33.7 2.7
      vertex -0.2 29.95 6.1
    endloop
  endfacet
  facet normal 1 0 0
    outer loop
      vertex -0.2 34.2 8.6
      vertex -0.2 29.95 6.1
      vertex -0.2 33.7 2.7
    endloop
  endfacet
  facet normal 1 0 0
    outer loop
      vertex -0.2 34.2 8.6
      vertex -0.2 20.75 6.1
      vertex -0.2 29.95 6.1
    endloop
  endfacet
  facet normal 1 0 0
    outer loop
      vertex -0.2 20.75 6.1
      vertex -0.2 20 2.7
      vertex -0.2 20.75 1.6
    endloop
  endfacet
  facet normal 1 0 0
    outer loop
      vertex -0.2 20.75 6.1
      vertex -0.2 18 2.7
      vertex -0.2 20 2.7
    endloop
  endfacet
  facet normal 1 0 0
    outer loop
      vertex -0.2 18 2.7
      vertex -0.2 4.5 2.7
      vertex -0.2 18 1.6
    endloop
  endfacet
  facet normal 1 0 0
    outer loop
      vertex -0.2 4 8.6
      vertex -0.2 18 2.7
      vertex -0.2 20.75 6.1
    endloop
  endfacet
  facet normal 1 -0 0
    outer loop
      vertex -0.2 4 8.6
      vertex -0.2 20.75 6.1
      vertex -0.2 34.2 8.6
    endloop
  endfacet
  facet normal 1 0 0
    outer loop
      vertex -0.2 18 2.7
      vertex -0.2 4 8.6
      vertex -0.2 4.5 2.7
    endloop
  endfacet
  facet normal 1 0 0
    outer loop
      vertex -0.2 4.5 2.7
      vertex -0.2 4 8.6
      vertex -0.2 4 2.7
    endloop
  endfacet
  facet normal 1 0 0
    outer loop
      vertex -0.2 33.7 2.7
      vertex -0.2 29.95 1.6
      vertex -0.2 33.7 1.6
    endloop
  endfacet
  facet normal 1 0 0
    outer loop
      vertex -0.2 20.75 1.6
      vertex -0.2 20 2.7
      vertex -0.2 20 1.6
    endloop
  endfacet
  facet normal 1 0 0
    outer loop
      vertex -0.2 18 1.6
      vertex -0.2 4.5 2.7
      vertex -0.2 4.5 1.6
    endloop
  endfacet
  facet normal 0 -1 0
    outer loop
      vertex 1.71953 36.95 8.6
      vertex 6 36.95 4.2
      vertex 43.2865 36.95 8.6
    endloop
  endfacet
  facet normal 0 -1 0
    outer loop
      vertex 1.71953 36.95 2.7
      vertex 6 36.95 4.2
      vertex 1.71953 36.95 8.6
    endloop
  endfacet
  facet normal 0 -1 -0
    outer loop
      vertex 6 36.95 4.2
      vertex 1.71953 36.95 2.7
      vertex 6 36.95 2.7
    endloop
  endfacet
  facet normal 0 -1 0
    outer loop
      vertex 39 36.95 4.2
      vertex 43.2865 36.95 8.6
      vertex 6 36.95 4.2
    endloop
  endfacet
  facet normal 0 -1 0
    outer loop
      vertex 43.2865 36.95 2.7
      vertex 39 36.95 4.2
      vertex 39 36.95 2.7
    endloop
  endfacet
  facet normal 0 -1 0
    outer loop
      vertex 39 36.95 4.2
      vertex 43.2865 36.95 2.7
      vertex 43.2865 36.95 8.6
    endloop
  endfacet
  facet normal 0 1 0
    outer loop
      vertex 42.25 1.05 8.6
      vertex 39 1.05 4.2
      vertex 2.75 1.05 8.6
    endloop
  endfacet
  facet normal 0 1 -0
    outer loop
      vertex 42.25 1.05 2.7
      vertex 39 1.05 4.2
      vertex 42.25 1.05 8.6
    endloop
  endfacet
  facet normal 0 1 0
    outer loop
      vertex 39 1.05 4.2
      vertex 42.25 1.05 2.7
      vertex 39 1.05 2.7
    endloop
  endfacet
  facet normal 0 1 -0
    outer loop
      vertex 6 1.05 4.2
      vertex 2.75 1.05 8.6
      vertex 39 1.05 4.2
    endloop
  endfacet
  facet normal 0 1 0
    outer loop
      vertex 2.75 1.05 2.7
      vertex 6 1.05 4.2
      vertex 6 1.05 2.7
    endloop
  endfacet
  facet normal 0 1 0
    outer loop
      vertex 6 1.05 4.2
      vertex 2.75 1.05 2.7
      vertex 2.75 1.05 8.6
    endloop
  endfacet
  facet normal 0 0 -1
    outer loop
      vertex -1.7 20.75 6.1
      vertex -0.2 29.95 6.1
      vertex -0.2 20.75 6.1
    endloop
  endfacet
  facet normal -0 0 -1
    outer loop
      vertex -0.2 29.95 6.1
      vertex -1.7 20.75 6.1
      vertex -1.7 29.95 6.1
    endloop
  endfacet
  facet normal 0 -1 0
    outer loop
      vertex -1.7 29.95 1.6
      vertex -0.2 29.95 6.1
      vertex -1.7 29.95 6.1
    endloop
  endfacet
  facet normal 0 -1 -0
    outer loop
      vertex -0.2 29.95 6.1
      vertex -1.7 29.95 1.6
      vertex -0.2 29.95 1.6
    endloop
  endfacet
  facet normal 0 1 -0
    outer loop
      vertex -0.2 20.75 1.6
      vertex -1.7 20.75 6.1
      vertex -0.2 20.75 6.1
    endloop
  endfacet
  facet normal 0 1 0
    outer loop
      vertex -1.7 20.75 6.1
      vertex -0.2 20.75 1.6
      vertex -1.7 20.75 1.6
    endloop
  endfacet
  facet normal 0 0 -1
    outer loop
      vertex 2.75 -0.425622 2.7
      vertex 6 -0.45 2.7
      vertex 2.75 -0.45 2.7
    endloop
  endfacet
  facet normal 0 0 -1
    outer loop
      vertex 6 -0.45 2.7
      vertex 2.75 -0.425622 2.7
      vertex 6 1.05 2.7
    endloop
  endfacet
  facet normal 0 0 -1
    outer loop
      vertex 2.75 -0.425622 2.7
      vertex 2.75 1.05 2.7
      vertex 6 1.05 2.7
    endloop
  endfacet
  facet normal 0 0 -1
    outer loop
      vertex 2.44164 1.06616 2.7
      vertex 2.75 1.05 2.7
      vertex 2.75 -0.425622 2.7
    endloop
  endfacet
  facet normal 0 0 -1
    outer loop
      vertex 2.75 1.05 2.7
      vertex 2.44164 1.06616 2.7
      vertex 2.75 1.06616 2.7
    endloop
  endfacet
  facet normal 0 0 -1
    outer loop
      vertex 2.28485 -0.425622 2.7
      vertex 2.44164 1.06616 2.7
      vertex 2.75 -0.425622 2.7
    endloop
  endfacet
  facet normal 0 0 -1
    outer loop
      vertex 2.28485 -0.425622 2.7
      vertex 1.8384 1.19438 2.7
      vertex 2.44164 1.06616 2.7
    endloop
  endfacet
  facet normal 0 0 -1
    outer loop
      vertex 1.37488 -0.232201 2.7
      vertex 1.8384 1.19438 2.7
      vertex 2.28485 -0.425622 2.7
    endloop
  endfacet
  facet normal 0 0 -1
    outer loop
      vertex 1.37488 -0.232201 2.7
      vertex 1.275 1.44523 2.7
      vertex 1.8384 1.19438 2.7
    endloop
  endfacet
  facet normal 0 0 -1
    outer loop
      vertex 0.525001 0.146188 2.7
      vertex 1.275 1.44523 2.7
      vertex 1.37488 -0.232201 2.7
    endloop
  endfacet
  facet normal -0 0 -1
    outer loop
      vertex 1.275 1.44523 2.7
      vertex 0.525001 0.146188 2.7
      vertex 0.776065 1.80772 2.7
    endloop
  endfacet
  facet normal 0 0 -1
    outer loop
      vertex -0.227631 0.693006 2.7
      vertex 0.776065 1.80772 2.7
      vertex 0.525001 0.146188 2.7
    endloop
  endfacet
  facet normal -0 0 -1
    outer loop
      vertex 0.776065 1.80772 2.7
      vertex -0.227631 0.693006 2.7
      vertex 0.3634 2.26603 2.7
    endloop
  endfacet
  facet normal 0 0 -1
    outer loop
      vertex -0.850125 1.38436 2.7
      vertex 0.3634 2.26603 2.7
      vertex -0.227631 0.693006 2.7
    endloop
  endfacet
  facet normal -0 0 -1
    outer loop
      vertex 0.3634 2.26603 2.7
      vertex -0.850125 1.38436 2.7
      vertex 0.0550413 2.80013 2.7
    endloop
  endfacet
  facet normal 0 0 -1
    outer loop
      vertex -1.31528 2.19002 2.7
      vertex 0.0550413 2.80013 2.7
      vertex -0.850125 1.38436 2.7
    endloop
  endfacet
  facet normal -0 0 -1
    outer loop
      vertex 0.0550413 2.80013 2.7
      vertex -1.31528 2.19002 2.7
      vertex -0.135535 3.38666 2.7
    endloop
  endfacet
  facet normal 0 0 -1
    outer loop
      vertex -1.60276 3.07479 2.7
      vertex -0.135535 3.38666 2.7
      vertex -1.31528 2.19002 2.7
    endloop
  endfacet
  facet normal -0 0 -1
    outer loop
      vertex -0.135535 3.38666 2.7
      vertex -1.60276 3.07479 2.7
      vertex -0.2 4 2.7
    endloop
  endfacet
  facet normal 0 0 -1
    outer loop
      vertex -1.7 4 2.7
      vertex -0.2 4 2.7
      vertex -1.60276 3.07479 2.7
    endloop
  endfacet
  facet normal 0 0 -1
    outer loop
      vertex -0.2 4 2.7
      vertex -1.7 4 2.7
      vertex -0.2 4.5 2.7
    endloop
  endfacet
  facet normal 0 0 -1
    outer loop
      vertex -1.7 4 2.7
      vertex -1.7 4.5 2.7
      vertex -0.2 4.5 2.7
    endloop
  endfacet
  facet normal 0 0 -1
    outer loop
      vertex 45 2.96348 2.7
      vertex 46.6756 3.53485 2.7
      vertex 46.4822 2.62488 2.7
    endloop
  endfacet
  facet normal 0 0 -1
    outer loop
      vertex 46.6756 4 2.7
      vertex 46.7 4.5 2.7
      vertex 46.7 4 2.7
    endloop
  endfacet
  facet normal 0 0 -1
    outer loop
      vertex 45 4.5 2.7
      vertex 46.6756 3.53485 2.7
      vertex 45 2.96348 2.7
    endloop
  endfacet
  facet normal 0 0 -1
    outer loop
      vertex 45 2.96348 2.7
      vertex 46.4822 2.62488 2.7
      vertex 46.1038 1.775 2.7
    endloop
  endfacet
  facet normal 0 0 -1
    outer loop
      vertex 44.8048 2.525 2.7
      vertex 46.1038 1.775 2.7
      vertex 45.557 1.02237 2.7
    endloop
  endfacet
  facet normal 0 0 -1
    outer loop
      vertex 46.6756 3.53485 2.7
      vertex 45 4.5 2.7
      vertex 46.6756 4 2.7
    endloop
  endfacet
  facet normal 0 0 -1
    outer loop
      vertex 46.6756 4 2.7
      vertex 45 4.5 2.7
      vertex 46.7 4.5 2.7
    endloop
  endfacet
  facet normal 0 0 -1
    outer loop
      vertex 44.4423 2.02606 2.7
      vertex 45.557 1.02237 2.7
      vertex 44.8656 0.399875 2.7
    endloop
  endfacet
  facet normal 0 0 -1
    outer loop
      vertex 46.1038 1.775 2.7
      vertex 44.8048 2.525 2.7
      vertex 45 2.96348 2.7
    endloop
  endfacet
  facet normal 0 0 -1
    outer loop
      vertex 45.557 1.02237 2.7
      vertex 44.4423 2.02606 2.7
      vertex 44.8048 2.525 2.7
    endloop
  endfacet
  facet normal 0 0 -1
    outer loop
      vertex 43.984 1.6134 2.7
      vertex 44.8656 0.399875 2.7
      vertex 44.06 -0.0652771 2.7
    endloop
  endfacet
  facet normal 0 0 -1
    outer loop
      vertex 44.8656 0.399875 2.7
      vertex 43.984 1.6134 2.7
      vertex 44.4423 2.02606 2.7
    endloop
  endfacet
  facet normal 0 0 -1
    outer loop
      vertex 44.06 -0.0652771 2.7
      vertex 43.4499 1.30504 2.7
      vertex 43.984 1.6134 2.7
    endloop
  endfacet
  facet normal 0 0 -1
    outer loop
      vertex 43.1752 -0.352757 2.7
      vertex 43.4499 1.30504 2.7
      vertex 44.06 -0.0652771 2.7
    endloop
  endfacet
  facet normal 0 0 -1
    outer loop
      vertex 43.1752 -0.352757 2.7
      vertex 42.8633 1.11446 2.7
      vertex 43.4499 1.30504 2.7
    endloop
  endfacet
  facet normal 0 0 -1
    outer loop
      vertex 42.25 -0.45 2.7
      vertex 42.8633 1.11446 2.7
      vertex 43.1752 -0.352757 2.7
    endloop
  endfacet
  facet normal 0 0 -1
    outer loop
      vertex 42.25 1.05 2.7
      vertex 42.8633 1.11446 2.7
      vertex 42.25 -0.45 2.7
    endloop
  endfacet
  facet normal 0 0 -1
    outer loop
      vertex 42.25 -0.45 2.7
      vertex 39 -0.45 2.7
      vertex 42.25 1.05 2.7
    endloop
  endfacet
  facet normal -0 0 -1
    outer loop
      vertex 42.25 1.05 2.7
      vertex 39 -0.45 2.7
      vertex 39 1.05 2.7
    endloop
  endfacet
  facet normal 0 -1 0
    outer loop
      vertex -1.7 4.5 1.6
      vertex -0.2 4.5 2.7
      vertex -1.7 4.5 2.7
    endloop
  endfacet
  facet normal 0 -1 -0
    outer loop
      vertex -0.2 4.5 2.7
      vertex -1.7 4.5 1.6
      vertex -0.2 4.5 1.6
    endloop
  endfacet
  facet normal 0 -1 0
    outer loop
      vertex 45 4.5 1.6
      vertex 46.7 4.5 2.7
      vertex 45 4.5 2.7
    endloop
  endfacet
  facet normal 0 -1 -0
    outer loop
      vertex 46.7 4.5 2.7
      vertex 45 4.5 1.6
      vertex 46.7 4.5 1.6
    endloop
  endfacet
  facet normal 0 0 -1
    outer loop
      vertex -0.183839 34.2 2.7
      vertex -0.2 34.2 2.7
      vertex -0.183839 34.5084 2.7
    endloop
  endfacet
  facet normal 0 0 -1
    outer loop
      vertex 6 36.95 2.7
      vertex 2.75 38.65 2.7
      vertex 6 38.65 2.7
    endloop
  endfacet
  facet normal 0 0 -1
    outer loop
      vertex 1.71953 36.95 2.7
      vertex 2.75 38.65 2.7
      vertex 6 36.95 2.7
    endloop
  endfacet
  facet normal 0 0 -1
    outer loop
      vertex 2.75 38.65 2.7
      vertex 1.71953 36.95 2.7
      vertex 1.82479 38.5528 2.7
    endloop
  endfacet
  facet normal 0 0 -1
    outer loop
      vertex 0.940022 38.2653 2.7
      vertex 1.71953 36.95 2.7
      vertex 1.55013 36.895 2.7
    endloop
  endfacet
  facet normal 0 0 -1
    outer loop
      vertex 0.940022 38.2653 2.7
      vertex 1.55013 36.895 2.7
      vertex 1.01603 36.5866 2.7
    endloop
  endfacet
  facet normal 0 0 -1
    outer loop
      vertex 1.71953 36.95 2.7
      vertex 0.940022 38.2653 2.7
      vertex 1.82479 38.5528 2.7
    endloop
  endfacet
  facet normal 0 0 -1
    outer loop
      vertex 0.134356 37.8001 2.7
      vertex 1.01603 36.5866 2.7
      vertex 0.557723 36.1739 2.7
    endloop
  endfacet
  facet normal 0 0 -1
    outer loop
      vertex -0.556994 37.1776 2.7
      vertex 0.557723 36.1739 2.7
      vertex 0.195226 35.675 2.7
    endloop
  endfacet
  facet normal 0 0 -1
    outer loop
      vertex 1.01603 36.5866 2.7
      vertex 0.134356 37.8001 2.7
      vertex 0.940022 38.2653 2.7
    endloop
  endfacet
  facet normal 0 0 -1
    outer loop
      vertex -1.10381 36.425 2.7
      vertex 0.195226 35.675 2.7
      vertex -0.0556164 35.1116 2.7
    endloop
  endfacet
  facet normal 0 0 -1
    outer loop
      vertex -1.4822 35.5751 2.7
      vertex -0.0556164 35.1116 2.7
      vertex -0.183839 34.5084 2.7
    endloop
  endfacet
  facet normal 0 0 -1
    outer loop
      vertex 0.557723 36.1739 2.7
      vertex -0.556994 37.1776 2.7
      vertex 0.134356 37.8001 2.7
    endloop
  endfacet
  facet normal 0 0 -1
    outer loop
      vertex -1.67562 34.2 2.7
      vertex -0.183839 34.5084 2.7
      vertex -0.2 34.2 2.7
    endloop
  endfacet
  facet normal 0 0 -1
    outer loop
      vertex -1.67562 34.2 2.7
      vertex -0.2 34.2 2.7
      vertex -0.2 33.7 2.7
    endloop
  endfacet
  facet normal 0 0 -1
    outer loop
      vertex 0.195226 35.675 2.7
      vertex -1.10381 36.425 2.7
      vertex -0.556994 37.1776 2.7
    endloop
  endfacet
  facet normal 0 0 -1
    outer loop
      vertex -0.0556164 35.1116 2.7
      vertex -1.4822 35.5751 2.7
      vertex -1.10381 36.425 2.7
    endloop
  endfacet
  facet normal -0 0 -1
    outer loop
      vertex -0.183839 34.5084 2.7
      vertex -1.67562 34.2 2.7
      vertex -1.67562 34.6651 2.7
    endloop
  endfacet
  facet normal 0 0 -1
    outer loop
      vertex -1.7 33.7 2.7
      vertex -1.67562 34.2 2.7
      vertex -0.2 33.7 2.7
    endloop
  endfacet
  facet normal -0 0 -1
    outer loop
      vertex -1.67562 34.2 2.7
      vertex -1.7 33.7 2.7
      vertex -1.7 34.2 2.7
    endloop
  endfacet
  facet normal 0 0 -1
    outer loop
      vertex -0.183839 34.5084 2.7
      vertex -1.67562 34.6651 2.7
      vertex -1.4822 35.5751 2.7
    endloop
  endfacet
  facet normal 0 0 -1
    outer loop
      vertex 45 33.7 2.7
      vertex 46.7 34.2 2.7
      vertex 46.7 33.7 2.7
    endloop
  endfacet
  facet normal 0 0 -1
    outer loop
      vertex 45 35.2305 2.7
      vertex 46.7 34.2 2.7
      vertex 45 33.7 2.7
    endloop
  endfacet
  facet normal 0 0 -1
    outer loop
      vertex 46.6028 35.1252 2.7
      vertex 45 35.2305 2.7
      vertex 46.3153 36.01 2.7
    endloop
  endfacet
  facet normal 0 0 -1
    outer loop
      vertex 44.945 35.3999 2.7
      vertex 46.3153 36.01 2.7
      vertex 45 35.2305 2.7
    endloop
  endfacet
  facet normal 0 0 -1
    outer loop
      vertex 46.7 34.2 2.7
      vertex 45 35.2305 2.7
      vertex 46.6028 35.1252 2.7
    endloop
  endfacet
  facet normal -0 0 -1
    outer loop
      vertex 46.3153 36.01 2.7
      vertex 44.945 35.3999 2.7
      vertex 45.8501 36.8156 2.7
    endloop
  endfacet
  facet normal 0 0 -1
    outer loop
      vertex 44.6366 35.934 2.7
      vertex 45.8501 36.8156 2.7
      vertex 44.945 35.3999 2.7
    endloop
  endfacet
  facet normal -0 0 -1
    outer loop
      vertex 45.8501 36.8156 2.7
      vertex 44.6366 35.934 2.7
      vertex 45.2276 37.507 2.7
    endloop
  endfacet
  facet normal 0 0 -1
    outer loop
      vertex 44.2239 36.3923 2.7
      vertex 45.2276 37.507 2.7
      vertex 44.6366 35.934 2.7
    endloop
  endfacet
  facet normal -0 0 -1
    outer loop
      vertex 45.2276 37.507 2.7
      vertex 44.2239 36.3923 2.7
      vertex 44.475 38.0538 2.7
    endloop
  endfacet
  facet normal 0 0 -1
    outer loop
      vertex 43.725 36.7548 2.7
      vertex 44.475 38.0538 2.7
      vertex 44.2239 36.3923 2.7
    endloop
  endfacet
  facet normal 0 0 -1
    outer loop
      vertex 43.2865 36.95 2.7
      vertex 44.475 38.0538 2.7
      vertex 43.725 36.7548 2.7
    endloop
  endfacet
  facet normal -0 0 -1
    outer loop
      vertex 44.475 38.0538 2.7
      vertex 43.2865 36.95 2.7
      vertex 43.6251 38.4322 2.7
    endloop
  endfacet
  facet normal 0 0 -1
    outer loop
      vertex 43.2865 36.95 2.7
      vertex 42.7151 38.6256 2.7
      vertex 43.6251 38.4322 2.7
    endloop
  endfacet
  facet normal 0 0 -1
    outer loop
      vertex 43.2865 36.95 2.7
      vertex 42.25 38.6256 2.7
      vertex 42.7151 38.6256 2.7
    endloop
  endfacet
  facet normal 0 0 -1
    outer loop
      vertex 39 36.95 2.7
      vertex 42.25 38.6256 2.7
      vertex 43.2865 36.95 2.7
    endloop
  endfacet
  facet normal 0 0 -1
    outer loop
      vertex 39 38.65 2.7
      vertex 42.25 38.6256 2.7
      vertex 39 36.95 2.7
    endloop
  endfacet
  facet normal 0 0 -1
    outer loop
      vertex 42.25 38.6256 2.7
      vertex 39 38.65 2.7
      vertex 42.25 38.65 2.7
    endloop
  endfacet
  facet normal 0 1 -0
    outer loop
      vertex -0.2 33.7 1.6
      vertex -1.7 33.7 2.7
      vertex -0.2 33.7 2.7
    endloop
  endfacet
  facet normal 0 1 0
    outer loop
      vertex -1.7 33.7 2.7
      vertex -0.2 33.7 1.6
      vertex -1.7 33.7 1.6
    endloop
  endfacet
  facet normal 0 1 -0
    outer loop
      vertex 46.7 33.7 1.6
      vertex 45 33.7 2.7
      vertex 46.7 33.7 2.7
    endloop
  endfacet
  facet normal 0 1 0
    outer loop
      vertex 45 33.7 2.7
      vertex 46.7 33.7 1.6
      vertex 45 33.7 1.6
    endloop
  endfacet
  facet normal -1 0 0
    outer loop
      vertex 39 36.95 2.7
      vertex 39 38.65 4.2
      vertex 39 38.65 2.7
    endloop
  endfacet
  facet normal -1 -0 0
    outer loop
      vertex 39 38.65 4.2
      vertex 39 36.95 2.7
      vertex 39 36.95 4.2
    endloop
  endfacet
  facet normal 0 0 -1
    outer loop
      vertex 6 36.95 4.2
      vertex 39 38.65 4.2
      vertex 39 36.95 4.2
    endloop
  endfacet
  facet normal -0 0 -1
    outer loop
      vertex 39 38.65 4.2
      vertex 6 36.95 4.2
      vertex 6 38.65 4.2
    endloop
  endfacet
  facet normal 1 -0 0
    outer loop
      vertex 6 36.95 4.2
      vertex 6 38.65 2.7
      vertex 6 38.65 4.2
    endloop
  endfacet
  facet normal 1 0 0
    outer loop
      vertex 6 38.65 2.7
      vertex 6 36.95 4.2
      vertex 6 36.95 2.7
    endloop
  endfacet
  facet normal -1 0 0
    outer loop
      vertex 39 -0.45 2.7
      vertex 39 1.05 4.2
      vertex 39 1.05 2.7
    endloop
  endfacet
  facet normal -1 -0 0
    outer loop
      vertex 39 1.05 4.2
      vertex 39 -0.45 2.7
      vertex 39 -0.45 4.2
    endloop
  endfacet
  facet normal 0 0 -1
    outer loop
      vertex 6 -0.45 4.2
      vertex 39 1.05 4.2
      vertex 39 -0.45 4.2
    endloop
  endfacet
  facet normal -0 0 -1
    outer loop
      vertex 39 1.05 4.2
      vertex 6 -0.45 4.2
      vertex 6 1.05 4.2
    endloop
  endfacet
  facet normal 1 -0 0
    outer loop
      vertex 6 -0.45 4.2
      vertex 6 1.05 2.7
      vertex 6 1.05 4.2
    endloop
  endfacet
  facet normal 1 0 0
    outer loop
      vertex 6 1.05 2.7
      vertex 6 -0.45 4.2
      vertex 6 -0.45 2.7
    endloop
  endfacet
  facet normal -1 0 0
    outer loop
      vertex 46.2 18 1.6
      vertex 46.2 20 2.7
      vertex 46.2 20 1.6
    endloop
  endfacet
  facet normal -1 -0 0
    outer loop
      vertex 46.2 20 2.7
      vertex 46.2 18 1.6
      vertex 46.2 18 2.7
    endloop
  endfacet
  facet normal 0 0 -1
    outer loop
      vertex -1.2 18 2.7
      vertex -0.2 20 2.7
      vertex -0.2 18 2.7
    endloop
  endfacet
  facet normal -0 0 -1
    outer loop
      vertex -0.2 20 2.7
      vertex -1.2 18 2.7
      vertex -1.2 20 2.7
    endloop
  endfacet
  facet normal 0 0 -1
    outer loop
      vertex 45 18 2.7
      vertex 46.2 20 2.7
      vertex 46.2 18 2.7
    endloop
  endfacet
  facet normal -0 0 -1
    outer loop
      vertex 46.2 20 2.7
      vertex 45 18 2.7
      vertex 45 20 2.7
    endloop
  endfacet
  facet normal 1 -0 0
    outer loop
      vertex -1.2 18 2.7
      vertex -1.2 20 1.6
      vertex -1.2 20 2.7
    endloop
  endfacet
  facet normal 1 0 0
    outer loop
      vertex -1.2 20 1.6
      vertex -1.2 18 2.7
      vertex -1.2 18 1.6
    endloop
  endfacet
  facet normal 0 -1 0
    outer loop
      vertex -1.2 20 1.6
      vertex -0.2 20 2.7
      vertex -1.2 20 2.7
    endloop
  endfacet
  facet normal 0 -1 -0
    outer loop
      vertex -0.2 20 2.7
      vertex -1.2 20 1.6
      vertex -0.2 20 1.6
    endloop
  endfacet
  facet normal 0 -1 0
    outer loop
      vertex 45 20 1.6
      vertex 46.2 20 2.7
      vertex 45 20 2.7
    endloop
  endfacet
  facet normal 0 -1 -0
    outer loop
      vertex 46.2 20 2.7
      vertex 45 20 1.6
      vertex 46.2 20 1.6
    endloop
  endfacet
  facet normal 0 1 -0
    outer loop
      vertex -0.2 18 1.6
      vertex -1.2 18 2.7
      vertex -0.2 18 2.7
    endloop
  endfacet
  facet normal 0 1 0
    outer loop
      vertex -1.2 18 2.7
      vertex -0.2 18 1.6
      vertex -1.2 18 1.6
    endloop
  endfacet
  facet normal 0 1 -0
    outer loop
      vertex 46.2 18 1.6
      vertex 45 18 2.7
      vertex 46.2 18 2.7
    endloop
  endfacet
  facet normal 0 1 0
    outer loop
      vertex 45 18 2.7
      vertex 46.2 18 1.6
      vertex 45 18 1.6
    endloop
  endfacet
endsolid OpenSCAD_Model
