solid OpenSCAD_Model
  facet normal 1 -0 0
    outer loop
      vertex 1.5 -0.866026 2.5
      vertex 1.5 0.866026 -2.5
      vertex 1.5 0.866026 2.5
    endloop
  endfacet
  facet normal 1 0 0
    outer loop
      vertex 1.5 0.866026 -2.5
      vertex 1.5 -0.866026 2.5
      vertex 1.5 -0.866026 -2.5
    endloop
  endfacet
  facet normal 0 0 1
    outer loop
      vertex 1.5 0.866026 2.5
      vertex 0.9 0 2.5
      vertex 1.5 -0.866026 2.5
    endloop
  endfacet
  facet normal 0 0 1
    outer loop
      vertex 1.5 0.866026 2.5
      vertex 0.779423 0.45 2.5
      vertex 0.9 0 2.5
    endloop
  endfacet
  facet normal 0 0 1
    outer loop
      vertex 1.5 0.866026 2.5
      vertex 0.45 0.779423 2.5
      vertex 0.779423 0.45 2.5
    endloop
  endfacet
  facet normal 0 0 1
    outer loop
      vertex 0 1.73205 2.5
      vertex 0.45 0.779423 2.5
      vertex 1.5 0.866026 2.5
    endloop
  endfacet
  facet normal 0 0 1
    outer loop
      vertex 0 1.73205 2.5
      vertex 0 0.9 2.5
      vertex 0.45 0.779423 2.5
    endloop
  endfacet
  facet normal 0 0 1
    outer loop
      vertex 0 1.73205 2.5
      vertex -0.45 0.779423 2.5
      vertex 0 0.9 2.5
    endloop
  endfacet
  facet normal -0 0 1
    outer loop
      vertex -1.5 0.866026 2.5
      vertex -0.45 0.779423 2.5
      vertex 0 1.73205 2.5
    endloop
  endfacet
  facet normal 0 0 1
    outer loop
      vertex -0.779423 0.45 2.5
      vertex -1.5 0.866026 2.5
      vertex -0.9 0 2.5
    endloop
  endfacet
  facet normal 0 0 1
    outer loop
      vertex -0.45 0.779423 2.5
      vertex -1.5 0.866026 2.5
      vertex -0.779423 0.45 2.5
    endloop
  endfacet
  facet normal -0 0 1
    outer loop
      vertex 0.779423 -0.45 2.5
      vertex 1.5 -0.866026 2.5
      vertex 0.9 0 2.5
    endloop
  endfacet
  facet normal -0 0 1
    outer loop
      vertex 0.45 -0.779423 2.5
      vertex 1.5 -0.866026 2.5
      vertex 0.779423 -0.45 2.5
    endloop
  endfacet
  facet normal 0 0 1
    outer loop
      vertex 0 -1.73205 2.5
      vertex 0.45 -0.779423 2.5
      vertex 0 -0.9 2.5
    endloop
  endfacet
  facet normal 0 0 1
    outer loop
      vertex 0.45 -0.779423 2.5
      vertex 0 -1.73205 2.5
      vertex 1.5 -0.866026 2.5
    endloop
  endfacet
  facet normal 0 0 1
    outer loop
      vertex -0.45 -0.779423 2.5
      vertex 0 -1.73205 2.5
      vertex 0 -0.9 2.5
    endloop
  endfacet
  facet normal 0 0 1
    outer loop
      vertex -1.5 -0.866026 2.5
      vertex -0.45 -0.779423 2.5
      vertex -0.779423 -0.45 2.5
    endloop
  endfacet
  facet normal 0 0 1
    outer loop
      vertex -1.5 -0.866026 2.5
      vertex -0.9 0 2.5
      vertex -1.5 0.866026 2.5
    endloop
  endfacet
  facet normal 0 0 1
    outer loop
      vertex -0.45 -0.779423 2.5
      vertex -1.5 -0.866026 2.5
      vertex 0 -1.73205 2.5
    endloop
  endfacet
  facet normal 0 0 1
    outer loop
      vertex -0.9 0 2.5
      vertex -1.5 -0.866026 2.5
      vertex -0.779423 -0.45 2.5
    endloop
  endfacet
  facet normal 0 0 -1
    outer loop
      vertex 1.5 -0.866026 -2.5
      vertex 0.9 0 -2.5
      vertex 1.5 0.866026 -2.5
    endloop
  endfacet
  facet normal 0 0 -1
    outer loop
      vertex 1.5 -0.866026 -2.5
      vertex 0.779423 -0.45 -2.5
      vertex 0.9 0 -2.5
    endloop
  endfacet
  facet normal 0 0 -1
    outer loop
      vertex 1.5 -0.866026 -2.5
      vertex 0.45 -0.779423 -2.5
      vertex 0.779423 -0.45 -2.5
    endloop
  endfacet
  facet normal 0 0 -1
    outer loop
      vertex 0 -1.73205 -2.5
      vertex 0.45 -0.779423 -2.5
      vertex 1.5 -0.866026 -2.5
    endloop
  endfacet
  facet normal 0 0 -1
    outer loop
      vertex 0 -1.73205 -2.5
      vertex 0 -0.9 -2.5
      vertex 0.45 -0.779423 -2.5
    endloop
  endfacet
  facet normal 0 0 -1
    outer loop
      vertex 0 -1.73205 -2.5
      vertex -0.45 -0.779423 -2.5
      vertex 0 -0.9 -2.5
    endloop
  endfacet
  facet normal 0 0 -1
    outer loop
      vertex -1.5 -0.866026 -2.5
      vertex -0.45 -0.779423 -2.5
      vertex 0 -1.73205 -2.5
    endloop
  endfacet
  facet normal -0 0 -1
    outer loop
      vertex -0.779423 -0.45 -2.5
      vertex -1.5 -0.866026 -2.5
      vertex -0.9 0 -2.5
    endloop
  endfacet
  facet normal -0 0 -1
    outer loop
      vertex -0.45 -0.779423 -2.5
      vertex -1.5 -0.866026 -2.5
      vertex -0.779423 -0.45 -2.5
    endloop
  endfacet
  facet normal 0 0 -1
    outer loop
      vertex 0.779423 0.45 -2.5
      vertex 1.5 0.866026 -2.5
      vertex 0.9 0 -2.5
    endloop
  endfacet
  facet normal 0 0 -1
    outer loop
      vertex 0.45 0.779423 -2.5
      vertex 1.5 0.866026 -2.5
      vertex 0.779423 0.45 -2.5
    endloop
  endfacet
  facet normal 0 0 -1
    outer loop
      vertex 0 1.73205 -2.5
      vertex 0.45 0.779423 -2.5
      vertex 0 0.9 -2.5
    endloop
  endfacet
  facet normal 0 0 -1
    outer loop
      vertex 0.45 0.779423 -2.5
      vertex 0 1.73205 -2.5
      vertex 1.5 0.866026 -2.5
    endloop
  endfacet
  facet normal 0 0 -1
    outer loop
      vertex -0.45 0.779423 -2.5
      vertex 0 1.73205 -2.5
      vertex 0 0.9 -2.5
    endloop
  endfacet
  facet normal 0 0 -1
    outer loop
      vertex -1.5 0.866026 -2.5
      vertex -0.45 0.779423 -2.5
      vertex -0.779423 0.45 -2.5
    endloop
  endfacet
  facet normal 0 0 -1
    outer loop
      vertex -1.5 0.866026 -2.5
      vertex -0.9 0 -2.5
      vertex -1.5 -0.866026 -2.5
    endloop
  endfacet
  facet normal 0 0 -1
    outer loop
      vertex -0.45 0.779423 -2.5
      vertex -1.5 0.866026 -2.5
      vertex 0 1.73205 -2.5
    endloop
  endfacet
  facet normal 0 0 -1
    outer loop
      vertex -0.9 0 -2.5
      vertex -1.5 0.866026 -2.5
      vertex -0.779423 0.45 -2.5
    endloop
  endfacet
  facet normal -1 0 0
    outer loop
      vertex -1.5 -0.866026 -2.5
      vertex -1.5 0.866026 2.5
      vertex -1.5 0.866026 -2.5
    endloop
  endfacet
  facet normal -1 -0 0
    outer loop
      vertex -1.5 0.866026 2.5
      vertex -1.5 -0.866026 -2.5
      vertex -1.5 -0.866026 2.5
    endloop
  endfacet
  facet normal -0.499999 0.866026 0
    outer loop
      vertex 0 1.73205 -2.5
      vertex -1.5 0.866026 2.5
      vertex 0 1.73205 2.5
    endloop
  endfacet
  facet normal -0.499999 0.866026 0
    outer loop
      vertex -1.5 0.866026 2.5
      vertex 0 1.73205 -2.5
      vertex -1.5 0.866026 -2.5
    endloop
  endfacet
  facet normal 0.499999 -0.866026 0
    outer loop
      vertex 0 -1.73205 -2.5
      vertex 1.5 -0.866026 2.5
      vertex 0 -1.73205 2.5
    endloop
  endfacet
  facet normal 0.499999 -0.866026 0
    outer loop
      vertex 1.5 -0.866026 2.5
      vertex 0 -1.73205 -2.5
      vertex 1.5 -0.866026 -2.5
    endloop
  endfacet
  facet normal -0.499999 -0.866026 0
    outer loop
      vertex -1.5 -0.866026 -2.5
      vertex 0 -1.73205 2.5
      vertex -1.5 -0.866026 2.5
    endloop
  endfacet
  facet normal -0.499999 -0.866026 -0
    outer loop
      vertex 0 -1.73205 2.5
      vertex -1.5 -0.866026 -2.5
      vertex 0 -1.73205 -2.5
    endloop
  endfacet
  facet normal 0.499999 0.866026 -0
    outer loop
      vertex 1.5 0.866026 -2.5
      vertex 0 1.73205 2.5
      vertex 1.5 0.866026 2.5
    endloop
  endfacet
  facet normal 0.499999 0.866026 0
    outer loop
      vertex 0 1.73205 2.5
      vertex 1.5 0.866026 -2.5
      vertex 0 1.73205 -2.5
    endloop
  endfacet
  facet normal -0.707107 -0.707107 0
    outer loop
      vertex 0.779423 0.45 -2.5
      vertex 0.45 0.779423 2.5
      vertex 0.45 0.779423 -2.5
    endloop
  endfacet
  facet normal -0.707107 -0.707107 0
    outer loop
      vertex 0.45 0.779423 2.5
      vertex 0.779423 0.45 -2.5
      vertex 0.779423 0.45 2.5
    endloop
  endfacet
  facet normal -0.965926 -0.258819 0
    outer loop
      vertex 0.9 0 -2.5
      vertex 0.779423 0.45 2.5
      vertex 0.779423 0.45 -2.5
    endloop
  endfacet
  facet normal -0.965926 -0.258819 0
    outer loop
      vertex 0.779423 0.45 2.5
      vertex 0.9 0 -2.5
      vertex 0.9 0 2.5
    endloop
  endfacet
  facet normal -0.258819 -0.965926 0
    outer loop
      vertex 0 0.9 -2.5
      vertex 0.45 0.779423 2.5
      vertex 0 0.9 2.5
    endloop
  endfacet
  facet normal -0.258819 -0.965926 -0
    outer loop
      vertex 0.45 0.779423 2.5
      vertex 0 0.9 -2.5
      vertex 0.45 0.779423 -2.5
    endloop
  endfacet
  facet normal -0.965926 0.258819 0
    outer loop
      vertex 0.779423 -0.45 -2.5
      vertex 0.9 0 2.5
      vertex 0.9 0 -2.5
    endloop
  endfacet
  facet normal -0.965926 0.258819 0
    outer loop
      vertex 0.9 0 2.5
      vertex 0.779423 -0.45 -2.5
      vertex 0.779423 -0.45 2.5
    endloop
  endfacet
  facet normal 0.707107 -0.707107 0
    outer loop
      vertex -0.779423 0.45 2.5
      vertex -0.45 0.779423 -2.5
      vertex -0.45 0.779423 2.5
    endloop
  endfacet
  facet normal 0.707107 -0.707107 0
    outer loop
      vertex -0.45 0.779423 -2.5
      vertex -0.779423 0.45 2.5
      vertex -0.779423 0.45 -2.5
    endloop
  endfacet
  facet normal 0.258819 0.965926 -0
    outer loop
      vertex 0 -0.9 -2.5
      vertex -0.45 -0.779423 2.5
      vertex 0 -0.9 2.5
    endloop
  endfacet
  facet normal 0.258819 0.965926 0
    outer loop
      vertex -0.45 -0.779423 2.5
      vertex 0 -0.9 -2.5
      vertex -0.45 -0.779423 -2.5
    endloop
  endfacet
  facet normal 0.965926 -0.258819 0
    outer loop
      vertex -0.9 0 2.5
      vertex -0.779423 0.45 -2.5
      vertex -0.779423 0.45 2.5
    endloop
  endfacet
  facet normal 0.965926 -0.258819 0
    outer loop
      vertex -0.779423 0.45 -2.5
      vertex -0.9 0 2.5
      vertex -0.9 0 -2.5
    endloop
  endfacet
  facet normal -0.707107 0.707107 0
    outer loop
      vertex 0.45 -0.779423 -2.5
      vertex 0.779423 -0.45 2.5
      vertex 0.779423 -0.45 -2.5
    endloop
  endfacet
  facet normal -0.707107 0.707107 0
    outer loop
      vertex 0.779423 -0.45 2.5
      vertex 0.45 -0.779423 -2.5
      vertex 0.45 -0.779423 2.5
    endloop
  endfacet
  facet normal 0.258819 -0.965926 0
    outer loop
      vertex -0.45 0.779423 -2.5
      vertex 0 0.9 2.5
      vertex -0.45 0.779423 2.5
    endloop
  endfacet
  facet normal 0.258819 -0.965926 0
    outer loop
      vertex 0 0.9 2.5
      vertex -0.45 0.779423 -2.5
      vertex 0 0.9 -2.5
    endloop
  endfacet
  facet normal -0.258819 0.965926 0
    outer loop
      vertex 0.45 -0.779423 -2.5
      vertex 0 -0.9 2.5
      vertex 0.45 -0.779423 2.5
    endloop
  endfacet
  facet normal -0.258819 0.965926 0
    outer loop
      vertex 0 -0.9 2.5
      vertex 0.45 -0.779423 -2.5
      vertex 0 -0.9 -2.5
    endloop
  endfacet
  facet normal 0.707107 0.707107 0
    outer loop
      vertex -0.45 -0.779423 2.5
      vertex -0.779423 -0.45 -2.5
      vertex -0.779423 -0.45 2.5
    endloop
  endfacet
  facet normal 0.707107 0.707107 0
    outer loop
      vertex -0.779423 -0.45 -2.5
      vertex -0.45 -0.779423 2.5
      vertex -0.45 -0.779423 -2.5
    endloop
  endfacet
  facet normal 0.965926 0.258819 0
    outer loop
      vertex -0.779423 -0.45 2.5
      vertex -0.9 0 -2.5
      vertex -0.9 0 2.5
    endloop
  endfacet
  facet normal 0.965926 0.258819 0
    outer loop
      vertex -0.9 0 -2.5
      vertex -0.779423 -0.45 2.5
      vertex -0.779423 -0.45 -2.5
    endloop
  endfacet
endsolid OpenSCAD_Model
